<svg id="visual" viewBox="0 0 900 600" width="900" height="600" xmlns="http://www.w3.org/2000/svg" xmlns:xlink="http://www.w3.org/1999/xlink" version="1.1"><rect x="0" y="0" width="900" height="600" fill="#00111c"></rect><path d="M0 363L16.7 357C33.3 351 66.7 339 100 342.3C133.3 345.7 166.7 364.3 200 367C233.3 369.7 266.7 356.3 300 360.7C333.3 365 366.7 387 400 393.8C433.3 400.7 466.7 392.3 500 391.3C533.3 390.3 566.7 396.7 600 396.2C633.3 395.7 666.7 388.3 700 385.8C733.3 383.3 766.7 385.7 800 388.7C833.3 391.7 866.7 395.3 883.3 397.2L900 399L900 601L883.3 601C866.7 601 833.3 601 800 601C766.7 601 733.3 601 700 601C666.7 601 633.3 601 600 601C566.7 601 533.3 601 500 601C466.7 601 433.3 601 400 601C366.7 601 333.3 601 300 601C266.7 601 233.3 601 200 601C166.7 601 133.3 601 100 601C66.7 601 33.3 601 16.7 601L0 601Z" fill="#6692b7"></path><path d="M0 424L16.7 428.5C33.3 433 66.7 442 100 442.7C133.3 443.3 166.7 435.7 200 427C233.3 418.3 266.7 408.7 300 396C333.3 383.3 366.7 367.7 400 360.2C433.3 352.7 466.7 353.3 500 356C533.3 358.7 566.7 363.3 600 377.5C633.3 391.7 666.7 415.3 700 425.3C733.3 435.3 766.7 431.7 800 421.3C833.3 411 866.7 394 883.3 385.5L900 377L900 601L883.3 601C866.7 601 833.3 601 800 601C766.7 601 733.3 601 700 601C666.7 601 633.3 601 600 601C566.7 601 533.3 601 500 601C466.7 601 433.3 601 400 601C366.7 601 333.3 601 300 601C266.7 601 233.3 601 200 601C166.7 601 133.3 601 100 601C66.7 601 33.3 601 16.7 601L0 601Z" fill="#48709e"></path><path d="M0 459L16.7 462.2C33.3 465.3 66.7 471.7 100 477.2C133.3 482.7 166.7 487.3 200 490C233.3 492.7 266.7 493.3 300 484.7C333.3 476 366.7 458 400 447.2C433.3 436.3 466.7 432.7 500 431.2C533.3 429.7 566.7 430.3 600 434.3C633.3 438.3 666.7 445.7 700 445C733.3 444.3 766.7 435.7 800 429.8C833.3 424 866.7 421 883.3 419.5L900 418L900 601L883.3 601C866.7 601 833.3 601 800 601C766.7 601 733.3 601 700 601C666.7 601 633.3 601 600 601C566.7 601 533.3 601 500 601C466.7 601 433.3 601 400 601C366.7 601 333.3 601 300 601C266.7 601 233.3 601 200 601C166.7 601 133.3 601 100 601C66.7 601 33.3 601 16.7 601L0 601Z" fill="#324e84"></path><path d="M0 498L16.7 500.2C33.3 502.3 66.7 506.7 100 504.8C133.3 503 166.7 495 200 492.2C233.3 489.3 266.7 491.7 300 498C333.3 504.3 366.7 514.7 400 519.3C433.3 524 466.7 523 500 514.2C533.3 505.3 566.7 488.7 600 487.3C633.3 486 666.7 500 700 504C733.3 508 766.7 502 800 494.2C833.3 486.3 866.7 476.7 883.3 471.8L900 467L900 601L883.3 601C866.7 601 833.3 601 800 601C766.7 601 733.3 601 700 601C666.7 601 633.3 601 600 601C566.7 601 533.3 601 500 601C466.7 601 433.3 601 400 601C366.7 601 333.3 601 300 601C266.7 601 233.3 601 200 601C166.7 601 133.3 601 100 601C66.7 601 33.3 601 16.7 601L0 601Z" fill="#232c67"></path><path d="M0 530L16.7 531.2C33.3 532.3 66.7 534.7 100 535.2C133.3 535.7 166.7 534.3 200 535.8C233.3 537.3 266.7 541.7 300 542.7C333.3 543.7 366.7 541.3 400 539.3C433.3 537.3 466.7 535.7 500 540.2C533.3 544.7 566.7 555.3 600 557.8C633.3 560.3 666.7 554.7 700 552.2C733.3 549.7 766.7 550.3 800 543.8C833.3 537.3 866.7 523.7 883.3 516.8L900 510L900 601L883.3 601C866.7 601 833.3 601 800 601C766.7 601 733.3 601 700 601C666.7 601 633.3 601 600 601C566.7 601 533.3 601 500 601C466.7 601 433.3 601 400 601C366.7 601 333.3 601 300 601C266.7 601 233.3 601 200 601C166.7 601 133.3 601 100 601C66.7 601 33.3 601 16.7 601L0 601Z" fill="#1a0948"></path></svg>