<svg id="visual" viewBox="0 0 900 600" width="900" height="600" xmlns="http://www.w3.org/2000/svg" xmlns:xlink="http://www.w3.org/1999/xlink" version="1.1"><rect x="0" y="0" width="900" height="600" fill="#00101C"></rect><path d="M0 409L100 429L200 417L300 402L400 427L500 432L600 436L700 424L800 403L900 406L900 601L800 601L700 601L600 601L500 601L400 601L300 601L200 601L100 601L0 601Z" fill="#8cb9ce"></path><path d="M0 442L100 472L200 471L300 464L400 439L500 436L600 446L700 433L800 439L900 463L900 601L800 601L700 601L600 601L500 601L400 601L300 601L200 601L100 601L0 601Z" fill="#658da7"></path><path d="M0 471L100 484L200 486L300 497L400 491L500 493L600 487L700 471L800 476L900 479L900 601L800 601L700 601L600 601L500 601L400 601L300 601L200 601L100 601L0 601Z" fill="#426480"></path><path d="M0 530L100 509L200 536L300 515L400 521L500 509L600 535L700 519L800 533L900 535L900 601L800 601L700 601L600 601L500 601L400 601L300 601L200 601L100 601L0 601Z" fill="#213e5a"></path><path d="M0 568L100 574L200 566L300 558L400 561L500 554L600 551L700 561L800 564L900 568L900 601L800 601L700 601L600 601L500 601L400 601L300 601L200 601L100 601L0 601Z" fill="#011b36"></path></svg>