<?xml version="1.0" encoding="utf-8"?>
<svg xmlns="http://www.w3.org/2000/svg" xmlns:xlink="http://www.w3.org/1999/xlink" style="margin: auto; background: rgb(0, 17, 28); display: block; z-index: 1; position: relative; shape-rendering: auto;" width="1410" height="1082" preserveAspectRatio="xMidYMid" viewBox="0 0 1410 1082">
<g transform="translate(705,541) scale(-1,1) translate(-705,-541)"><g transform="translate(1030.9271016941589,271.3696523363042) scale(100)" opacity="0.59">
  <path d="M4.12425 0 C4.12425 0.8459999999999999 4.00496175680061 1.864061530385885 3.5076954333611785 2.5484899076270904 S2.079057151836577 3.6609664600890817 1.274463339050877 3.922394837330287 S-0.535226620575478 4.3849716677679185 -1.3398204333611778 4.123543290526713 S-2.8393220156114443 3.1086017040084384 -3.3365883390508766 2.424173326767233 S-4.33575 0.8460000000000004 -4.33575 5.309762359403137e-16 S-3.8338546624903094 -1.7397449495260267 -3.336588339050877 -2.424173326767232 S-2.1444142461468787 -3.862114913285506 -1.339820433361179 -4.123543290526712 S0.4698695262651763 -4.183823214571492 1.2744633390508762 -3.9223948373302875 S3.0104291099217457 -3.2329182848682967 3.507695433361178 -2.5484899076270913 S4.12425 -0.8460000000000009 4.12425 -1.0101499122766943e-15" fill="#57a6ff" stroke-width="0">
    <animateTransform attributeName="transform" type="rotate" dur="10s" repeatCount="indefinite" values="0;72"></animateTransform>
  </path>
</g><g transform="translate(1096.1125220329907,217.4435828035651) scale(100)" opacity="0.59">
  <path d="M4.9491000000000005 0 C4.9491000000000005 1.0151999999999999 4.805954108160733 2.2368738364630616 4.209234520033414 3.0581878891525083 S2.4948685822038925 4.393159752106898 1.5293560068610526 4.706873804796345 S-0.6422719446905735 5.261966001321501 -1.6077845200334133 4.948251948632055 S-3.4071864187337333 3.7303220448101264 -4.003906006861052 2.9090079921206797 S-5.2029 1.0152000000000005 -5.2029 6.371714831283763e-16 S-4.600625594988371 -2.0876939394312317 -4.003906006861053 -2.9090079921206784 S-2.5732970953762546 -4.634537895942607 -1.6077845200334147 -4.948251948632054 S0.5638434315182116 -5.020587857485792 1.5293560068610514 -4.706873804796345 S3.6125149319060945 -3.879501941841956 4.209234520033413 -3.0581878891525096 S4.9491000000000005 -1.015200000000001 4.9491000000000005 -1.2121798947320333e-15" fill="#3e95dc" stroke-width="0">
    <animateTransform attributeName="transform" type="rotate" dur="5s" repeatCount="indefinite" values="0;72"></animateTransform>
  </path>
</g><g transform="translate(1252.5575308461869,88.02101592499122) scale(100)" opacity="0.59">
  <path d="M6.9287399999999995 0 C6.9287399999999995 1.4212799999999997 6.728335751425026 3.1316233710482866 5.8929283280467795 4.281463044813512 S3.492816015085449 6.150423652949656 2.141098409605473 6.589623326714881 S-0.8991807225668034 7.366752401850102 -2.250898328046779 6.927552728084876 S-4.770060986227226 5.222450862734176 -5.605468409605472 4.072611188968951 S-7.284059999999999 1.4212800000000005 -7.284059999999999 8.92040076379727e-16 S-6.4408758329837195 -2.922771515203724 -5.605468409605473 -4.072611188968949 S-3.6026159335267556 -6.48835305431965 -2.2508983280467803 -6.927552728084875 S0.7893808041254962 -7.0288230004801076 2.1410984096054717 -6.589623326714882 S5.057520904668532 -5.431302718578738 5.892928328046779 -4.281463044813513 S6.9287399999999995 -1.4212800000000014 6.9287399999999995 -1.6970518526248462e-15" fill="#2e83b9" stroke-width="0">
    <animateTransform attributeName="transform" type="rotate" dur="3.3333333333333335s" repeatCount="indefinite" values="0;72"></animateTransform>
  </path>
</g><g transform="translate(1581.0920493538993,-183.7663745200142) scale(100)" opacity="0.59">
  <path d="M11.085984 0 C11.085984 2.2740479999999996 10.76533720228004 5.010597393677259 9.428685324874847 6.850340871701619 S5.588505624136719 9.840677844719451 3.4257574553687573 10.543397322743811 S-1.4386891561068853 11.786803842960163 -3.6014373248748464 11.084084364935803 S-7.632097577963563 8.355921380374681 -8.968749455368757 6.5161779023503215 S-11.654496 2.274048000000001 -11.654496 1.427264122207563e-15 S-10.30540133277395 -4.676434424325959 -8.968749455368757 -6.516177902350319 S-5.76418549364281 -10.381364886911442 -3.601437324874849 -11.084084364935801 S1.263009286600794 -11.246116800768172 3.425757455368755 -10.543397322743813 S8.092033447469653 -8.690084349725982 9.428685324874847 -6.850340871701621 S11.085984 -2.2740480000000023 11.085984 -2.7152829641997543e-15" fill="#277197" stroke-width="0">
    <animateTransform attributeName="transform" type="rotate" dur="2.5s" repeatCount="indefinite" values="0;72"></animateTransform>
  </path>
</g></g>
</svg>