<?xml version="1.0" encoding="utf-8"?>
<svg xmlns="http://www.w3.org/2000/svg" xmlns:xlink="http://www.w3.org/1999/xlink" style="margin: auto; background: rgb(0, 17, 28); display: block; z-index: 1; position: relative; shape-rendering: auto;" width="1410" height="1082" preserveAspectRatio="xMidYMid" viewBox="0 0 1410 1082">
<g transform="translate(705,541) scale(-1,1) translate(-705,-541)"><g transform="translate(1085.248285309852,226.43126105902172) scale(100)" opacity="0.59">
  <path d="M4.762275 0 C4.762275 0.9869999999999997 4.712380371606448 2.2037456543174994 4.132236327593778 3.002245427765572 S2.410316688470269 4.224192897691429 1.4716239068869528 4.529192671139502 S-0.6396810460104614 5.162734918141736 -1.5783738275937778 4.857735144693663 S-3.272617362874281 3.5976947858092108 -3.8527614068869522 2.799195012361138 S-5.107724999999999 0.9870000000000003 -5.107724999999999 6.255159072174914e-16 S-4.432905450899623 -2.000695238913064 -3.8527614068869527 -2.7991950123611367 S-2.5170666091770952 -4.552735371245589 -1.5783738275937789 -4.857735144693662 S0.5329311253036353 -4.8341924445875755 1.4716239068869517 -4.529192671139502 S3.5520922835811066 -3.800745201213646 4.132236327593778 -3.002245427765573 S4.762275 -0.9870000000000009 4.762275 -1.1664209670818922e-15" fill="#57a6ff" stroke-width="0">
    <animateTransform attributeName="transform" type="rotate" dur="10s" repeatCount="indefinite" values="0;72"></animateTransform>
  </path>
</g><g transform="translate(1161.2979423718223,163.51751327082604) scale(100)" opacity="0.59">
  <path d="M5.714729999999999 0 C5.714729999999999 1.1843999999999997 5.654856445927738 2.644494785180999 4.958683593112533 3.6026945133186863 S2.892380026164323 5.069031477229715 1.7659486882643434 5.435031205367403 S-0.7676172552125535 6.195281901770083 -1.8940485931125333 5.829282173632396 S-3.927140835449137 4.317233742971053 -4.623313688264342 3.3590340148333655 S-6.129269999999999 1.1844000000000003 -6.129269999999999 7.506190886609897e-16 S-5.319486541079548 -2.4008342866956767 -4.623313688264343 -3.359034014833364 S-3.020479931012514 -5.463282445494707 -1.8940485931125346 -5.829282173632395 S0.6395173503643623 -5.80103093350509 1.765948688264342 -5.435031205367403 S4.262510740297328 -4.560894241456375 4.958683593112533 -3.6026945133186876 S5.714729999999999 -1.184400000000001 5.714729999999999 -1.3997051604982707e-15" fill="#3e95dc" stroke-width="0">
    <animateTransform attributeName="transform" type="rotate" dur="5s" repeatCount="indefinite" values="0;72"></animateTransform>
  </path>
</g><g transform="translate(1343.8171193205512,12.524518579156506) scale(100)" opacity="0.59">
  <path d="M8.000621999999996 0 C8.000621999999996 1.6581599999999992 7.9167990242988315 3.7022926992533973 6.942157030357545 5.04377231864616 S4.049332036630051 7.0966440681215985 2.47232816357008 7.609043687514361 S-1.0746641572975746 8.673394662478115 -2.6516680303575457 8.160995043085352 S-5.49799716962879 6.044127240159472 -6.472639163570077 4.70264762076671 S-8.580977999999996 1.6581600000000003 -8.580977999999996 1.0508667241253852e-15 S-7.447281157511364 -3.3611680013739456 -6.4726391635700775 -4.702647620766708 S-4.228671903417519 -7.648595423692587 -2.6516680303575475 -8.16099504308535 S0.8953242905101069 -8.121443306907125 2.472328163570078 -7.609043687514362 S5.967515036416257 -6.385251938038923 6.942157030357544 -5.043772318646162 S8.000621999999996 -1.6581600000000012 8.000621999999996 -1.959587224697578e-15" fill="#2e83b9" stroke-width="0">
    <animateTransform attributeName="transform" type="rotate" dur="3.3333333333333335s" repeatCount="indefinite" values="0;72"></animateTransform>
  </path>
</g><g transform="translate(1727.107390912882,-304.5607702733496) scale(100)" opacity="0.59">
  <path d="M12.800995199999997 0 C12.800995199999997 2.653055999999999 12.666878438878133 5.923668318805436 11.107451248572074 8.070035709833856 S6.478931258608082 11.354630508994559 3.9557250617121285 12.174469900022979 S-1.7194626516761198 13.877431459964985 -4.242668848572074 13.057592068936565 S-8.796795471406067 9.670603584255158 -10.356222661712126 7.524236193226738 S-13.729564799999997 2.6530560000000007 -13.729564799999997 1.6813867586006166e-15 S-11.915649852018186 -5.377868802198314 -10.356222661712128 -7.524236193226734 S-6.7658750454680305 -12.237752677908142 -4.242668848572077 -13.057592068936563 S1.4325188648161715 -12.994309291051401 3.955725061712126 -12.17446990002298 S9.548024058266012 -10.21640310086228 11.107451248572072 -8.07003570983386 S12.800995199999997 -2.653056000000002 12.800995199999997 -3.135339559516126e-15" fill="#277197" stroke-width="0">
    <animateTransform attributeName="transform" type="rotate" dur="2.5s" repeatCount="indefinite" values="0;72"></animateTransform>
  </path>
</g></g>
</svg>