<svg id="visual" viewBox="0 0 900 600" width="900" height="600" xmlns="http://www.w3.org/2000/svg" xmlns:xlink="http://www.w3.org/1999/xlink" version="1.1"><g stroke-width="1" stroke-linejoin="bevel"><path d="M412 265L448 210L372.5 256Z" fill="#081a28" stroke="#081a28"></path><path d="M448 210L326.5 199L372.5 256Z" fill="#112e42" stroke="#112e42"></path><path d="M448 210L443 83L326.5 199Z" fill="#15384f" stroke="#15384f"></path><path d="M372.5 256L415 362L412 265Z" fill="#112e42" stroke="#112e42"></path><path d="M548.5 335L568.5 216L448 210Z" fill="#00101c" stroke="#00101c"></path><path d="M252 298L415 362L372.5 256Z" fill="#19435d" stroke="#19435d"></path><path d="M300.5 62L258 171L326.5 199Z" fill="#19435d" stroke="#19435d"></path><path d="M326.5 199L252 298L372.5 256Z" fill="#1d4e6b" stroke="#1d4e6b"></path><path d="M548.5 335L448 210L412 265Z" fill="#205a7a" stroke="#205a7a"></path><path d="M448 210L527.5 73L443 83Z" fill="#15384f" stroke="#15384f"></path><path d="M258 171L252 298L326.5 199Z" fill="#0c2435" stroke="#0c2435"></path><path d="M443 83L300.5 62L326.5 199Z" fill="#15384f" stroke="#15384f"></path><path d="M415 362L548.5 335L412 265Z" fill="#246688" stroke="#246688"></path><path d="M568.5 216L527.5 73L448 210Z" fill="#277297" stroke="#277297"></path><path d="M443 83L330.5 0L300.5 62Z" fill="#246688" stroke="#246688"></path><path d="M300.5 62L200 143L258 171Z" fill="#081a28" stroke="#081a28"></path><path d="M258 171L148.5 174L252 298Z" fill="#112e42" stroke="#112e42"></path><path d="M252 298L313.5 420L415 362Z" fill="#00101c" stroke="#00101c"></path><path d="M472 494L580.5 362L548.5 335Z" fill="#297ea6" stroke="#297ea6"></path><path d="M134.5 291L240 375L252 298Z" fill="#00101c" stroke="#00101c"></path><path d="M252 298L240 375L313.5 420Z" fill="#19435d" stroke="#19435d"></path><path d="M472 494L548.5 335L415 362Z" fill="#1d4e6b" stroke="#1d4e6b"></path><path d="M635 305L649 229L568.5 216Z" fill="#205a7a" stroke="#205a7a"></path><path d="M483 0L330.5 0L443 83Z" fill="#246688" stroke="#246688"></path><path d="M300.5 62L241 0L200 143Z" fill="#0c2435" stroke="#0c2435"></path><path d="M527.5 73L483 0L443 83Z" fill="#246688" stroke="#246688"></path><path d="M635 305L568.5 216L548.5 335Z" fill="#205a7a" stroke="#205a7a"></path><path d="M568.5 216L673 59L527.5 73Z" fill="#277297" stroke="#277297"></path><path d="M527.5 73L548.5 0L483 0Z" fill="#00101c" stroke="#00101c"></path><path d="M580.5 362L635 305L548.5 335Z" fill="#081a28" stroke="#081a28"></path><path d="M90.5 106L148.5 174L200 143Z" fill="#277297" stroke="#277297"></path><path d="M200 143L148.5 174L258 171Z" fill="#297ea6" stroke="#297ea6"></path><path d="M673 59L548.5 0L527.5 73Z" fill="#19435d" stroke="#19435d"></path><path d="M240 375L298.5 466L313.5 420Z" fill="#00101c" stroke="#00101c"></path><path d="M313.5 420L472 494L415 362Z" fill="#00101c" stroke="#00101c"></path><path d="M330.5 0L241 0L300.5 62Z" fill="#297ea6" stroke="#297ea6"></path><path d="M148.5 174L134.5 291L252 298Z" fill="#19435d" stroke="#19435d"></path><path d="M240 375L253 503L298.5 466Z" fill="#0c2435" stroke="#0c2435"></path><path d="M298.5 466L472 494L313.5 420Z" fill="#277297" stroke="#277297"></path><path d="M580.5 362L718 380L635 305Z" fill="#15384f" stroke="#15384f"></path><path d="M649 229L673 59L568.5 216Z" fill="#081a28" stroke="#081a28"></path><path d="M134.5 291L139.5 395L240 375Z" fill="#297ea6" stroke="#297ea6"></path><path d="M141.5 478L253 503L240 375Z" fill="#0c2435" stroke="#0c2435"></path><path d="M364.5 600L420 600L472 494Z" fill="#1d4e6b" stroke="#1d4e6b"></path><path d="M241 0L90.5 106L200 143Z" fill="#205a7a" stroke="#205a7a"></path><path d="M148.5 174L0 182L134.5 291Z" fill="#0c2435" stroke="#0c2435"></path><path d="M134.5 291L0 363L139.5 395Z" fill="#277297" stroke="#277297"></path><path d="M546.5 600L560.5 525L472 494Z" fill="#081a28" stroke="#081a28"></path><path d="M472 494L560.5 525L580.5 362Z" fill="#112e42" stroke="#112e42"></path><path d="M635 305L765.5 339L649 229Z" fill="#19435d" stroke="#19435d"></path><path d="M748.5 0L713 0L673 59Z" fill="#15384f" stroke="#15384f"></path><path d="M698 537L718 380L580.5 362Z" fill="#19435d" stroke="#19435d"></path><path d="M0 363L141.5 478L139.5 395Z" fill="#1d4e6b" stroke="#1d4e6b"></path><path d="M139.5 395L141.5 478L240 375Z" fill="#00101c" stroke="#00101c"></path><path d="M787.5 203L673 59L649 229Z" fill="#15384f" stroke="#15384f"></path><path d="M673 59L713 0L548.5 0Z" fill="#19435d" stroke="#19435d"></path><path d="M364.5 600L472 494L298.5 466Z" fill="#00101c" stroke="#00101c"></path><path d="M364.5 600L298.5 466L253 503Z" fill="#1d4e6b" stroke="#1d4e6b"></path><path d="M235 600L364.5 600L253 503Z" fill="#00101c" stroke="#00101c"></path><path d="M241 0L87.5 0L90.5 106Z" fill="#1d4e6b" stroke="#1d4e6b"></path><path d="M789.5 418L765.5 339L718 380Z" fill="#205a7a" stroke="#205a7a"></path><path d="M718 380L765.5 339L635 305Z" fill="#277297" stroke="#277297"></path><path d="M765.5 339L787.5 203L649 229Z" fill="#297ea6" stroke="#297ea6"></path><path d="M0 112L0 182L90.5 106Z" fill="#297ea6" stroke="#297ea6"></path><path d="M90.5 106L0 182L148.5 174Z" fill="#277297" stroke="#277297"></path><path d="M0 182L0 278L134.5 291Z" fill="#277297" stroke="#277297"></path><path d="M420 600L546.5 600L472 494Z" fill="#15384f" stroke="#15384f"></path><path d="M560.5 525L698 537L580.5 362Z" fill="#081a28" stroke="#081a28"></path><path d="M808.5 114L748.5 0L673 59Z" fill="#0c2435" stroke="#0c2435"></path><path d="M0 0L0 112L90.5 106Z" fill="#15384f" stroke="#15384f"></path><path d="M141.5 478L235 600L253 503Z" fill="#15384f" stroke="#15384f"></path><path d="M900 187L808.5 114L787.5 203Z" fill="#081a28" stroke="#081a28"></path><path d="M787.5 203L808.5 114L673 59Z" fill="#00101c" stroke="#00101c"></path><path d="M0 278L0 363L134.5 291Z" fill="#297ea6" stroke="#297ea6"></path><path d="M141.5 478L109.5 600L235 600Z" fill="#081a28" stroke="#081a28"></path><path d="M644 600L698 537L560.5 525Z" fill="#081a28" stroke="#081a28"></path><path d="M698 537L789.5 418L718 380Z" fill="#205a7a" stroke="#205a7a"></path><path d="M900 330L900 187L787.5 203Z" fill="#081a28" stroke="#081a28"></path><path d="M546.5 600L644 600L560.5 525Z" fill="#1d4e6b" stroke="#1d4e6b"></path><path d="M87.5 0L0 0L90.5 106Z" fill="#081a28" stroke="#081a28"></path><path d="M0 515L109.5 600L141.5 478Z" fill="#19435d" stroke="#19435d"></path><path d="M698 537L790.5 508L789.5 418Z" fill="#112e42" stroke="#112e42"></path><path d="M900 330L787.5 203L765.5 339Z" fill="#277297" stroke="#277297"></path><path d="M757.5 600L790.5 508L698 537Z" fill="#081a28" stroke="#081a28"></path><path d="M0 363L0 515L141.5 478Z" fill="#112e42" stroke="#112e42"></path><path d="M900 330L765.5 339L900 366Z" fill="#00101c" stroke="#00101c"></path><path d="M808.5 114L900 64L748.5 0Z" fill="#112e42" stroke="#112e42"></path><path d="M900 366L765.5 339L789.5 418Z" fill="#297ea6" stroke="#297ea6"></path><path d="M900 507L900 366L789.5 418Z" fill="#15384f" stroke="#15384f"></path><path d="M644 600L757.5 600L698 537Z" fill="#19435d" stroke="#19435d"></path><path d="M790.5 508L900 507L789.5 418Z" fill="#00101c" stroke="#00101c"></path><path d="M900 187L900 64L808.5 114Z" fill="#0c2435" stroke="#0c2435"></path><path d="M900 64L900 0L748.5 0Z" fill="#0c2435" stroke="#0c2435"></path><path d="M0 515L0 600L109.5 600Z" fill="#0c2435" stroke="#0c2435"></path><path d="M900 600L900 507L790.5 508Z" fill="#19435d" stroke="#19435d"></path><path d="M757.5 600L900 600L790.5 508Z" fill="#112e42" stroke="#112e42"></path></g></svg>