<?xml version="1.0" encoding="utf-8"?>
<svg xmlns="http://www.w3.org/2000/svg" xmlns:xlink="http://www.w3.org/1999/xlink" style="margin: auto; background: rgb(0, 17, 28); display: block; z-index: 1; position: relative; shape-rendering: auto;" width="1920" height="976" preserveAspectRatio="xMidYMid" viewBox="0 0 1920 976">
<g transform="translate(960,488) scale(1,1) translate(-960,-488)"><path d="M-100 836.48C-65.7 841.78 -66.32 822.04 -35.76 822.04S-1.63 843.72 28.48 843.72S61.31 840.98 92.73 840.98S126.49 830.87 156.97 830.87S189.65 832.43 221.21 832.43S254.78 821.06 285.45 821.06S319.71 837.58 349.7 837.58S383.7 843.24 413.94 843.24S447.06 843.66 478.18 843.66S511.18 831.93 542.42 831.93S576.89 839.89 606.67 839.89S639.09 836.93 670.91 836.93S704.78 829.92 735.15 829.92S769.63 837.97 799.39 837.97S832.7 831.19 863.64 831.19S897.9 827.69 927.88 827.69S960.15 833.12 992.12 833.12S1024.83 827.32 1056.36 827.32S1088.61 837.09 1120.61 837.09S1153.98 825.55 1184.85 825.55S1217.9 833.17 1249.09 833.17S1283.39 825.7 1313.33 825.7S1346.67 834.72 1377.58 834.72S1409.96 839.82 1441.82 839.82S1474.86 829.66 1506.06 829.66S1538.58 822.39 1570.3 822.39S1602.9 830.12 1634.55 830.12S1666.81 824.03 1698.79 824.03S1732.58 824.71 1763.03 824.71S1795.47 836.95 1827.27 836.95S1860.5 830.23 1891.52 830.23S1925.76 830.45 1955.76 830.45S1989.12 823.72 2020 823.72S2052.5 835.57 2084.24 835.57L2020 976 L-100 976 Z" fill="#0f3135" stroke-width="0">
  <animate attributeName="d" dur="25s" repeatCount="indefinite" values="M-100 836.48C-65.7 841.78 -66.32 822.04 -35.76 822.04S-1.63 843.72 28.48 843.72S61.31 840.98 92.73 840.98S126.49 830.87 156.97 830.87S189.65 832.43 221.21 832.43S254.78 821.06 285.45 821.06S319.71 837.58 349.7 837.58S383.7 843.24 413.94 843.24S447.06 843.66 478.18 843.66S511.18 831.93 542.42 831.93S576.89 839.89 606.67 839.89S639.09 836.93 670.91 836.93S704.78 829.92 735.15 829.92S769.63 837.97 799.39 837.97S832.7 831.19 863.64 831.19S897.9 827.69 927.88 827.69S960.15 833.12 992.12 833.12S1024.83 827.32 1056.36 827.32S1088.61 837.09 1120.61 837.09S1153.98 825.55 1184.85 825.55S1217.9 833.17 1249.09 833.17S1283.39 825.7 1313.33 825.7S1346.67 834.72 1377.58 834.72S1409.96 839.82 1441.82 839.82S1474.86 829.66 1506.06 829.66S1538.58 822.39 1570.3 822.39S1602.9 830.12 1634.55 830.12S1666.81 824.03 1698.79 824.03S1732.58 824.71 1763.03 824.71S1795.47 836.95 1827.27 836.95S1860.5 830.23 1891.52 830.23S1925.76 830.45 1955.76 830.45S1989.12 823.72 2020 823.72S2052.5 835.57 2084.24 835.57L2020 976 L-100 976 Z;M-100 836.71C-67.72 826.43 -67.19 833.13 -35.76 833.13S-3.31 826.53 28.48 826.53S61.9 836.92 92.73 836.92S126.71 837.83 156.97 837.83S190.21 823.84 221.21 823.84S255.43 837.98 285.45 837.98S317.81 837.98 349.7 837.98S381.94 842.25 413.94 842.25S446.35 840.96 478.18 840.96S510.43 824.74 542.42 824.74S576.97 824.45 606.67 824.45S639.85 831.4 670.91 831.4S703.88 821.78 735.15 821.78S768.95 842.85 799.39 842.85S833.44 843.17 863.64 843.17S895.86 821.75 927.88 821.75S961.89 837.08 992.12 837.08S1024.89 832 1056.36 832S1090.74 821.33 1120.61 821.33S1154.84 821.77 1184.85 821.77S1217.9 820.04 1249.09 820.04S1283.41 843.08 1313.33 843.08S1346.4 839.24 1377.58 839.24S1409.74 830.37 1441.82 830.37S1474.19 829.38 1506.06 829.38S1540.08 825.07 1570.3 825.07S1602.71 824.26 1634.55 824.26S1667.49 833.41 1698.79 833.41S1731.09 831.61 1763.03 831.61S1795.21 829.4 1827.27 829.4S1859.99 826.06 1891.52 826.06S1923.74 843.71 1955.76 843.71S1989.6 835.82 2020 835.82S2053.56 821.98 2084.24 821.98L2020 976 L-100 976 Z;M-100 836.48C-65.7 841.78 -66.32 822.04 -35.76 822.04S-1.63 843.72 28.48 843.72S61.31 840.98 92.73 840.98S126.49 830.87 156.97 830.87S189.65 832.43 221.21 832.43S254.78 821.06 285.45 821.06S319.71 837.58 349.7 837.58S383.7 843.24 413.94 843.24S447.06 843.66 478.18 843.66S511.18 831.93 542.42 831.93S576.89 839.89 606.67 839.89S639.09 836.93 670.91 836.93S704.78 829.92 735.15 829.92S769.63 837.97 799.39 837.97S832.7 831.19 863.64 831.19S897.9 827.69 927.88 827.69S960.15 833.12 992.12 833.12S1024.83 827.32 1056.36 827.32S1088.61 837.09 1120.61 837.09S1153.98 825.55 1184.85 825.55S1217.9 833.17 1249.09 833.17S1283.39 825.7 1313.33 825.7S1346.67 834.72 1377.58 834.72S1409.96 839.82 1441.82 839.82S1474.86 829.66 1506.06 829.66S1538.58 822.39 1570.3 822.39S1602.9 830.12 1634.55 830.12S1666.81 824.03 1698.79 824.03S1732.58 824.71 1763.03 824.71S1795.47 836.95 1827.27 836.95S1860.5 830.23 1891.52 830.23S1925.76 830.45 1955.76 830.45S1989.12 823.72 2020 823.72S2052.5 835.57 2084.24 835.57L2020 976 L-100 976 Z"></animate>
  <animateTransform attributeName="transform" type="translate" dur="25s" begin="0s" repeatCount="indefinite" values="0;10;0" calcMode="spline" keySplines="0.3 0 0.7 1;0.3 0 0.7 1"></animateTransform>
</path><path d="M-100 848.52C-66.19 848.28 -65.77 851.08 -34.06 851.08S-0.59 848.16 31.88 848.16S65.05 844.8 97.82 844.8S132.8 836.02 163.76 836.02S198.32 848.22 229.7 848.22S263.75 847.09 295.65 847.09S329.16 836.08 361.59 836.08S395.15 841.53 427.53 841.53S462.61 839.27 493.47 839.27S527.33 831.75 559.41 831.75S594.03 854.57 625.35 854.57S659.94 836.58 691.29 836.58S726.37 845.71 757.23 845.71S791.41 832.47 823.17 832.47S858.12 858.46 889.11 858.46S922.3 852.95 955.05 852.95S989.85 845.57 1021 845.57S1054.49 851.81 1086.94 851.81S1121.17 855.87 1152.88 855.87S1187.12 850.59 1218.82 850.59S1253.51 845.19 1284.76 845.19S1319.02 832.65 1350.7 832.65S1384.24 857.35 1416.64 857.35S1449.93 841.48 1482.58 841.48S1517.47 836 1548.52 836S1582.13 837.7 1614.46 837.7S1648.93 844.26 1680.4 844.26S1713.6 830.25 1746.35 830.25S1779.61 846.26 1812.29 846.26S1845.37 845.43 1878.23 845.43S1912.65 849.61 1944.17 849.61S1979.31 839.09 2010.11 839.09S2044.46 848.19 2076.05 848.19L2020 976 L-100 976 Z" fill="#254346" stroke-width="0">
  <animate attributeName="d" dur="22.5s" repeatCount="indefinite" values="M-100 848.52C-66.19 848.28 -65.77 851.08 -34.06 851.08S-0.59 848.16 31.88 848.16S65.05 844.8 97.82 844.8S132.8 836.02 163.76 836.02S198.32 848.22 229.7 848.22S263.75 847.09 295.65 847.09S329.16 836.08 361.59 836.08S395.15 841.53 427.53 841.53S462.61 839.27 493.47 839.27S527.33 831.75 559.41 831.75S594.03 854.57 625.35 854.57S659.94 836.58 691.29 836.58S726.37 845.71 757.23 845.71S791.41 832.47 823.17 832.47S858.12 858.46 889.11 858.46S922.3 852.95 955.05 852.95S989.85 845.57 1021 845.57S1054.49 851.81 1086.94 851.81S1121.17 855.87 1152.88 855.87S1187.12 850.59 1218.82 850.59S1253.51 845.19 1284.76 845.19S1319.02 832.65 1350.7 832.65S1384.24 857.35 1416.64 857.35S1449.93 841.48 1482.58 841.48S1517.47 836 1548.52 836S1582.13 837.7 1614.46 837.7S1648.93 844.26 1680.4 844.26S1713.6 830.25 1746.35 830.25S1779.61 846.26 1812.29 846.26S1845.37 845.43 1878.23 845.43S1912.65 849.61 1944.17 849.61S1979.31 839.09 2010.11 839.09S2044.46 848.19 2076.05 848.19L2020 976 L-100 976 Z;M-100 829.82C-65.12 844.99 -65.19 847.62 -34.06 847.62S1.05 844.09 31.88 844.09S66.35 850.43 97.82 850.43S130.99 842.04 163.76 842.04S196.97 848 229.7 848S264.2 831.27 295.65 831.27S330.4 854.97 361.59 854.97S395.66 847.37 427.53 847.37S461.15 854.15 493.47 854.15S527.74 853.63 559.41 853.63S592.71 857.28 625.35 857.28S658.63 838.99 691.29 838.99S725.29 831.8 757.23 831.8S790.71 842.24 823.17 842.24S857.99 855.38 889.11 855.38S924.18 849.68 955.05 849.68S989.21 851.46 1021 851.46S1054.55 853.17 1086.94 853.17S1121.84 849.11 1152.88 849.11S1186.84 850.9 1218.82 850.9S1252.61 838.92 1284.76 838.92S1318.73 844.7 1350.7 844.7S1383.98 842.64 1416.64 842.64S1451.42 838.86 1482.58 838.86S1516.45 843.2 1548.52 843.2S1581.8 839.29 1614.46 839.29S1649.56 838.25 1680.4 838.25S1715.21 844.72 1746.35 844.72S1780.58 850.22 1812.29 850.22S1845.69 850.37 1878.23 850.37S1912.18 851.7 1944.17 851.7S1977.65 852.29 2010.11 852.29S2043.25 841.97 2076.05 841.97L2020 976 L-100 976 Z;M-100 848.52C-66.19 848.28 -65.77 851.08 -34.06 851.08S-0.59 848.16 31.88 848.16S65.05 844.8 97.82 844.8S132.8 836.02 163.76 836.02S198.32 848.22 229.7 848.22S263.75 847.09 295.65 847.09S329.16 836.08 361.59 836.08S395.15 841.53 427.53 841.53S462.61 839.27 493.47 839.27S527.33 831.75 559.41 831.75S594.03 854.57 625.35 854.57S659.94 836.58 691.29 836.58S726.37 845.71 757.23 845.71S791.41 832.47 823.17 832.47S858.12 858.46 889.11 858.46S922.3 852.95 955.05 852.95S989.85 845.57 1021 845.57S1054.49 851.81 1086.94 851.81S1121.17 855.87 1152.88 855.87S1187.12 850.59 1218.82 850.59S1253.51 845.19 1284.76 845.19S1319.02 832.65 1350.7 832.65S1384.24 857.35 1416.64 857.35S1449.93 841.48 1482.58 841.48S1517.47 836 1548.52 836S1582.13 837.7 1614.46 837.7S1648.93 844.26 1680.4 844.26S1713.6 830.25 1746.35 830.25S1779.61 846.26 1812.29 846.26S1845.37 845.43 1878.23 845.43S1912.65 849.61 1944.17 849.61S1979.31 839.09 2010.11 839.09S2044.46 848.19 2076.05 848.19L2020 976 L-100 976 Z"></animate>
  <animateTransform attributeName="transform" type="translate" dur="22.5s" begin="-2.25s" repeatCount="indefinite" values="0;10;0" calcMode="spline" keySplines="0.3 0 0.7 1;0.3 0 0.7 1"></animateTransform>
</path><path d="M-100 848.11C-64.72 846.2 -63.72 855.67 -32.27 855.67S2.73 846.75 35.46 846.75S70.94 853.42 103.19 853.42S138.95 858.47 170.93 858.47S205.35 862.15 238.66 862.15S273.95 843.94 306.39 843.94S341.52 856.43 374.12 856.43S408.25 847.74 441.85 847.74S477.74 861.23 509.58 861.23S545.76 860.48 577.32 860.48S611.75 872.55 645.05 872.55S678.93 844.88 712.78 844.88S746.73 857.91 780.51 857.91S815.95 844.94 848.24 844.94S882.35 863.48 915.97 863.48S951.53 861.83 983.71 861.83S1017.77 859.71 1051.44 859.71S1085.35 862.57 1119.17 862.57S1154.63 853.45 1186.9 853.45S1222.34 844.47 1254.63 844.47S1289.51 868.57 1322.36 868.57S1356.97 862.93 1390.1 862.93S1425.92 857.2 1457.83 857.2S1492.6 841.38 1525.56 841.38S1561.61 854.54 1593.29 854.54S1628.02 843.67 1661.02 843.67S1696.55 867.75 1728.75 867.75S1763.97 839.63 1796.49 839.63S1832.18 870.37 1864.22 870.37S1899.72 848.71 1931.95 848.71S1967.08 853.8 1999.68 853.8S2033.77 856.28 2067.41 856.28L2020 976 L-100 976 Z" fill="#3b5658" stroke-width="0">
  <animate attributeName="d" dur="20s" repeatCount="indefinite" values="M-100 848.11C-64.72 846.2 -63.72 855.67 -32.27 855.67S2.73 846.75 35.46 846.75S70.94 853.42 103.19 853.42S138.95 858.47 170.93 858.47S205.35 862.15 238.66 862.15S273.95 843.94 306.39 843.94S341.52 856.43 374.12 856.43S408.25 847.74 441.85 847.74S477.74 861.23 509.58 861.23S545.76 860.48 577.32 860.48S611.75 872.55 645.05 872.55S678.93 844.88 712.78 844.88S746.73 857.91 780.51 857.91S815.95 844.94 848.24 844.94S882.35 863.48 915.97 863.48S951.53 861.83 983.71 861.83S1017.77 859.71 1051.44 859.71S1085.35 862.57 1119.17 862.57S1154.63 853.45 1186.9 853.45S1222.34 844.47 1254.63 844.47S1289.51 868.57 1322.36 868.57S1356.97 862.93 1390.1 862.93S1425.92 857.2 1457.83 857.2S1492.6 841.38 1525.56 841.38S1561.61 854.54 1593.29 854.54S1628.02 843.67 1661.02 843.67S1696.55 867.75 1728.75 867.75S1763.97 839.63 1796.49 839.63S1832.18 870.37 1864.22 870.37S1899.72 848.71 1931.95 848.71S1967.08 853.8 1999.68 853.8S2033.77 856.28 2067.41 856.28L2020 976 L-100 976 Z;M-100 843.59C-64.32 846.25 -64.7 854.91 -32.27 854.91S4.02 842.65 35.46 842.65S71.41 859.91 103.19 859.91S139.27 855.93 170.93 855.93S207.01 867.32 238.66 867.32S272.93 843.58 306.39 843.58S341.36 859.15 374.12 859.15S408.27 847.64 441.85 847.64S477.97 849.62 509.58 849.62S543.71 862.03 577.32 862.03S612.61 852.77 645.05 852.77S680.51 845 712.78 845S747.25 851.89 780.51 851.89S814.54 851.97 848.24 851.97S883.67 872.42 915.97 872.42S950.29 844.76 983.71 844.76S1019.07 839.94 1051.44 839.94S1086.19 857.77 1119.17 857.77S1153.7 855.27 1186.9 855.27S1223.04 850.86 1254.63 850.86S1289.73 869.88 1322.36 869.88S1356.33 854.01 1390.1 854.01S1425.73 852.06 1457.83 852.06S1492.3 846.15 1525.56 846.15S1560.92 863.11 1593.29 863.11S1629.59 850.85 1661.02 850.85S1696.25 849.71 1728.75 849.71S1763.57 859.82 1796.49 859.82S1830.52 863.86 1864.22 863.86S1900.03 844.18 1931.95 844.18S1967.52 869.55 1999.68 869.55S2035.11 839.48 2067.41 839.48L2020 976 L-100 976 Z;M-100 848.11C-64.72 846.2 -63.72 855.67 -32.27 855.67S2.73 846.75 35.46 846.75S70.94 853.42 103.19 853.42S138.95 858.47 170.93 858.47S205.35 862.15 238.66 862.15S273.95 843.94 306.39 843.94S341.52 856.43 374.12 856.43S408.25 847.74 441.85 847.74S477.74 861.23 509.58 861.23S545.76 860.48 577.32 860.48S611.75 872.55 645.05 872.55S678.93 844.88 712.78 844.88S746.73 857.91 780.51 857.91S815.95 844.94 848.24 844.94S882.35 863.48 915.97 863.48S951.53 861.83 983.71 861.83S1017.77 859.71 1051.44 859.71S1085.35 862.57 1119.17 862.57S1154.63 853.45 1186.9 853.45S1222.34 844.47 1254.63 844.47S1289.51 868.57 1322.36 868.57S1356.97 862.93 1390.1 862.93S1425.92 857.2 1457.83 857.2S1492.6 841.38 1525.56 841.38S1561.61 854.54 1593.29 854.54S1628.02 843.67 1661.02 843.67S1696.55 867.75 1728.75 867.75S1763.97 839.63 1796.49 839.63S1832.18 870.37 1864.22 870.37S1899.72 848.71 1931.95 848.71S1967.08 853.8 1999.68 853.8S2033.77 856.28 2067.41 856.28L2020 976 L-100 976 Z"></animate>
  <animateTransform attributeName="transform" type="translate" dur="20s" begin="-4s" repeatCount="indefinite" values="0;10;0" calcMode="spline" keySplines="0.3 0 0.7 1;0.3 0 0.7 1"></animateTransform>
</path><path d="M-100 867.82C-64.2 859.25 -65.17 887.31 -30.38 887.31S6.07 883.17 39.24 883.17S74.9 881.51 108.87 881.51S144.98 857.4 178.49 857.4S214.95 875.83 248.11 875.83S283.61 851.31 317.73 851.31S354.89 871.94 387.36 871.94S422.44 849.67 456.98 849.67S493.76 869.42 526.6 869.42S562.88 853.97 596.22 853.97S632.05 880.06 665.85 880.06S702.32 872.29 735.47 872.29S771.06 872.72 805.09 872.72S840.22 873 874.71 873S910.76 882.56 944.33 882.56S980.93 864.54 1013.96 864.54S1050.99 883.46 1083.58 883.46S1119.43 869.9 1153.2 869.9S1189.22 866.55 1222.82 866.55S1257.99 873.3 1292.45 873.3S1327.74 850.94 1362.07 850.94S1398.14 864.71 1431.69 864.71S1467.48 887.6 1501.31 887.6S1537.32 865.17 1570.94 865.17S1607.75 883.06 1640.56 883.06S1677.32 869.01 1710.18 869.01S1745.33 880.63 1779.8 880.63S1815.53 873.21 1849.43 873.21S1886.66 866.59 1919.05 866.59S1953.96 858.17 1988.67 858.17S2024.37 873.9 2058.29 873.9L2020 976 L-100 976 Z" fill="#51696b" stroke-width="0">
  <animate attributeName="d" dur="17.5s" repeatCount="indefinite" values="M-100 867.82C-64.2 859.25 -65.17 887.31 -30.38 887.31S6.07 883.17 39.24 883.17S74.9 881.51 108.87 881.51S144.98 857.4 178.49 857.4S214.95 875.83 248.11 875.83S283.61 851.31 317.73 851.31S354.89 871.94 387.36 871.94S422.44 849.67 456.98 849.67S493.76 869.42 526.6 869.42S562.88 853.97 596.22 853.97S632.05 880.06 665.85 880.06S702.32 872.29 735.47 872.29S771.06 872.72 805.09 872.72S840.22 873 874.71 873S910.76 882.56 944.33 882.56S980.93 864.54 1013.96 864.54S1050.99 883.46 1083.58 883.46S1119.43 869.9 1153.2 869.9S1189.22 866.55 1222.82 866.55S1257.99 873.3 1292.45 873.3S1327.74 850.94 1362.07 850.94S1398.14 864.71 1431.69 864.71S1467.48 887.6 1501.31 887.6S1537.32 865.17 1570.94 865.17S1607.75 883.06 1640.56 883.06S1677.32 869.01 1710.18 869.01S1745.33 880.63 1779.8 880.63S1815.53 873.21 1849.43 873.21S1886.66 866.59 1919.05 866.59S1953.96 858.17 1988.67 858.17S2024.37 873.9 2058.29 873.9L2020 976 L-100 976 Z;M-100 867.41C-64.69 851.78 -63.07 859.48 -30.38 859.48S4.63 870.68 39.24 870.68S75.5 880.49 108.87 880.49S144.49 850.18 178.49 850.18S213.54 869.31 248.11 869.31S283.85 866.33 317.73 866.33S353.97 887.43 387.36 887.43S422.7 883.12 456.98 883.12S492.01 881.21 526.6 881.21S561.5 872.77 596.22 872.77S632.24 853.15 665.85 853.15S701.34 852.95 735.47 852.95S771.6 863.17 805.09 863.17S840.86 865.73 874.71 865.73S911.56 885.84 944.33 885.84S979.17 868.49 1013.96 868.49S1050.28 865.9 1083.58 865.9S1119.94 875.37 1153.2 875.37S1188.08 878.48 1222.82 878.48S1258.43 866.18 1292.45 866.18S1329.02 883.11 1362.07 883.11S1398.02 850.36 1431.69 850.36S1467.04 879.3 1501.31 879.3S1537.18 855.07 1570.94 855.07S1606.06 882.48 1640.56 882.48S1675.46 873.37 1710.18 873.37S1745.4 867.9 1779.8 867.9S1815.57 865.4 1849.43 865.4S1884.86 871.41 1919.05 871.41S1955.43 860.02 1988.67 860.02S2025.35 866.11 2058.29 866.11L2020 976 L-100 976 Z;M-100 867.82C-64.2 859.25 -65.17 887.31 -30.38 887.31S6.07 883.17 39.24 883.17S74.9 881.51 108.87 881.51S144.98 857.4 178.49 857.4S214.95 875.83 248.11 875.83S283.61 851.31 317.73 851.31S354.89 871.94 387.36 871.94S422.44 849.67 456.98 849.67S493.76 869.42 526.6 869.42S562.88 853.97 596.22 853.97S632.05 880.06 665.85 880.06S702.32 872.29 735.47 872.29S771.06 872.72 805.09 872.72S840.22 873 874.71 873S910.76 882.56 944.33 882.56S980.93 864.54 1013.96 864.54S1050.99 883.46 1083.58 883.46S1119.43 869.9 1153.2 869.9S1189.22 866.55 1222.82 866.55S1257.99 873.3 1292.45 873.3S1327.74 850.94 1362.07 850.94S1398.14 864.71 1431.69 864.71S1467.48 887.6 1501.31 887.6S1537.32 865.17 1570.94 865.17S1607.75 883.06 1640.56 883.06S1677.32 869.01 1710.18 869.01S1745.33 880.63 1779.8 880.63S1815.53 873.21 1849.43 873.21S1886.66 866.59 1919.05 866.59S1953.96 858.17 1988.67 858.17S2024.37 873.9 2058.29 873.9L2020 976 L-100 976 Z"></animate>
  <animateTransform attributeName="transform" type="translate" dur="17.5s" begin="-5.25s" repeatCount="indefinite" values="0;10;0" calcMode="spline" keySplines="0.3 0 0.7 1;0.3 0 0.7 1"></animateTransform>
</path><path d="M-100 870.65C-62.14 881.7 -62.07 881.54 -28.38 881.54S9.49 859.26 43.24 859.26S79.87 901.68 114.86 901.68S151.9 876.59 186.49 876.59S222.61 892.93 258.11 892.93S294.24 862.63 329.73 862.63S367.48 878.7 401.35 878.7S438.41 882.82 472.97 882.82S510.82 867.95 544.59 867.95S582.77 876.97 616.22 876.97S652.53 880.41 687.84 880.41S726.07 866.28 759.46 866.28S796.45 878.81 831.08 878.81S867.38 860.07 902.7 860.07S940.13 887.87 974.32 887.87S1010.25 861.43 1045.95 861.43S1084.16 885.56 1117.57 885.56S1155.27 877.8 1189.19 877.8S1226.13 898.74 1260.81 898.74S1297.65 867.51 1332.43 867.51S1370.25 880.97 1404.05 880.97S1441.36 900.68 1475.68 900.68S1511.97 894.74 1547.3 894.74S1584.27 871.75 1618.92 871.75S1654.81 888.03 1690.54 888.03S1727.49 880.16 1762.16 880.16S1800.31 894.28 1833.78 894.28S1870.26 870.84 1905.41 870.84S1941.57 897.32 1977.03 897.32S2012.92 866.33 2048.65 866.33L2020 976 L-100 976 Z" fill="#677d7f" stroke-width="0">
  <animate attributeName="d" dur="15s" repeatCount="indefinite" values="M-100 870.65C-62.14 881.7 -62.07 881.54 -28.38 881.54S9.49 859.26 43.24 859.26S79.87 901.68 114.86 901.68S151.9 876.59 186.49 876.59S222.61 892.93 258.11 892.93S294.24 862.63 329.73 862.63S367.48 878.7 401.35 878.7S438.41 882.82 472.97 882.82S510.82 867.95 544.59 867.95S582.77 876.97 616.22 876.97S652.53 880.41 687.84 880.41S726.07 866.28 759.46 866.28S796.45 878.81 831.08 878.81S867.38 860.07 902.7 860.07S940.13 887.87 974.32 887.87S1010.25 861.43 1045.95 861.43S1084.16 885.56 1117.57 885.56S1155.27 877.8 1189.19 877.8S1226.13 898.74 1260.81 898.74S1297.65 867.51 1332.43 867.51S1370.25 880.97 1404.05 880.97S1441.36 900.68 1475.68 900.68S1511.97 894.74 1547.3 894.74S1584.27 871.75 1618.92 871.75S1654.81 888.03 1690.54 888.03S1727.49 880.16 1762.16 880.16S1800.31 894.28 1833.78 894.28S1870.26 870.84 1905.41 870.84S1941.57 897.32 1977.03 897.32S2012.92 866.33 2048.65 866.33L2020 976 L-100 976 Z;M-100 874.28C-63.45 876.4 -63.9 893.48 -28.38 893.48S7.66 863.89 43.24 863.89S79.52 880.48 114.86 880.48S151.03 868.48 186.49 868.48S223.11 894.57 258.11 894.57S294.23 880.96 329.73 880.96S366.03 893.43 401.35 893.43S438.51 859.08 472.97 859.08S510.65 891.6 544.59 891.6S582.36 870.07 616.22 870.07S653.58 880.96 687.84 880.96S724.72 879.03 759.46 879.03S796.6 894.67 831.08 894.67S868.29 871.47 902.7 871.47S938.58 891.9 974.32 891.9S1011.58 873.19 1045.95 873.19S1082.89 881.51 1117.57 881.51S1155.51 872.62 1189.19 872.62S1227.07 887.49 1260.81 887.49S1297.22 868.81 1332.43 868.81S1369.19 898.11 1404.05 898.11S1442.26 874.53 1475.68 874.53S1512.72 900.08 1547.3 900.08S1583.66 883.21 1618.92 883.21S1656.04 885.8 1690.54 885.8S1727.68 858.92 1762.16 858.92S1799.62 882.74 1833.78 882.74S1870.1 863.58 1905.41 863.58S1941.76 902.42 1977.03 902.42S2013.34 870.47 2048.65 870.47L2020 976 L-100 976 Z;M-100 870.65C-62.14 881.7 -62.07 881.54 -28.38 881.54S9.49 859.26 43.24 859.26S79.87 901.68 114.86 901.68S151.9 876.59 186.49 876.59S222.61 892.93 258.11 892.93S294.24 862.63 329.73 862.63S367.48 878.7 401.35 878.7S438.41 882.82 472.97 882.82S510.82 867.95 544.59 867.95S582.77 876.97 616.22 876.97S652.53 880.41 687.84 880.41S726.07 866.28 759.46 866.28S796.45 878.81 831.08 878.81S867.38 860.07 902.7 860.07S940.13 887.87 974.32 887.87S1010.25 861.43 1045.95 861.43S1084.16 885.56 1117.57 885.56S1155.27 877.8 1189.19 877.8S1226.13 898.74 1260.81 898.74S1297.65 867.51 1332.43 867.51S1370.25 880.97 1404.05 880.97S1441.36 900.68 1475.68 900.68S1511.97 894.74 1547.3 894.74S1584.27 871.75 1618.92 871.75S1654.81 888.03 1690.54 888.03S1727.49 880.16 1762.16 880.16S1800.31 894.28 1833.78 894.28S1870.26 870.84 1905.41 870.84S1941.57 897.32 1977.03 897.32S2012.92 866.33 2048.65 866.33L2020 976 L-100 976 Z"></animate>
  <animateTransform attributeName="transform" type="translate" dur="15s" begin="-6s" repeatCount="indefinite" values="0;10;0" calcMode="spline" keySplines="0.3 0 0.7 1;0.3 0 0.7 1"></animateTransform>
</path><path d="M-100 870.35C-62.98 889.82 -63 894.45 -26.26 894.45S12.47 909.54 47.48 909.54S85.93 905.28 121.22 905.28S159.21 884.78 194.96 884.78S233.96 895.44 268.7 895.44S307.2 882.45 342.43 882.45S380.17 895.75 416.17 895.75S453.99 878.87 489.91 878.87S527.55 911.96 563.65 911.96S600.6 873.35 637.39 873.35S675.36 876.52 711.13 876.52S748.83 869.44 784.87 869.44S822.72 906.56 858.61 906.56S896.16 913.95 932.35 913.95S971.24 897.2 1006.09 897.2S1043.96 890.85 1079.83 890.85S1117.54 876.11 1153.57 876.11S1192.37 884.27 1227.3 884.27S1265.83 872.7 1301.04 872.7S1339.03 870.29 1374.78 870.29S1412.11 907.47 1448.52 907.47S1486.13 901.74 1522.26 901.74S1559.84 895.74 1596 895.74S1633.92 901.74 1669.74 901.74S1707.05 906.45 1743.48 906.45S1780.76 888.33 1817.22 888.33S1856.46 898.89 1890.96 898.89S1928.23 874.84 1964.7 874.84S2002.9 894.81 2038.43 894.81L2020 976 L-100 976 Z" fill="#7e9193" stroke-width="0">
  <animate attributeName="d" dur="12.5s" repeatCount="indefinite" values="M-100 870.35C-62.98 889.82 -63 894.45 -26.26 894.45S12.47 909.54 47.48 909.54S85.93 905.28 121.22 905.28S159.21 884.78 194.96 884.78S233.96 895.44 268.7 895.44S307.2 882.45 342.43 882.45S380.17 895.75 416.17 895.75S453.99 878.87 489.91 878.87S527.55 911.96 563.65 911.96S600.6 873.35 637.39 873.35S675.36 876.52 711.13 876.52S748.83 869.44 784.87 869.44S822.72 906.56 858.61 906.56S896.16 913.95 932.35 913.95S971.24 897.2 1006.09 897.2S1043.96 890.85 1079.83 890.85S1117.54 876.11 1153.57 876.11S1192.37 884.27 1227.3 884.27S1265.83 872.7 1301.04 872.7S1339.03 870.29 1374.78 870.29S1412.11 907.47 1448.52 907.47S1486.13 901.74 1522.26 901.74S1559.84 895.74 1596 895.74S1633.92 901.74 1669.74 901.74S1707.05 906.45 1743.48 906.45S1780.76 888.33 1817.22 888.33S1856.46 898.89 1890.96 898.89S1928.23 874.84 1964.7 874.84S2002.9 894.81 2038.43 894.81L2020 976 L-100 976 Z;M-100 872.77C-62.18 881.84 -62.79 915.17 -26.26 915.17S13.03 875.97 47.48 875.97S85.61 871.68 121.22 871.68S159.77 884.37 194.96 884.37S234.23 904.57 268.7 904.57S307.9 908.02 342.43 908.02S380.45 912.8 416.17 912.8S454.06 885.58 489.91 885.58S527.76 911.07 563.65 911.07S602.36 907.78 637.39 907.78S674.72 904.76 711.13 904.76S749.72 886.02 784.87 886.02S822.57 915.65 858.61 915.65S896.89 868.68 932.35 868.68S971.42 896.8 1006.09 896.8S1043.4 876.56 1079.83 876.56S1118.62 889.91 1153.57 889.91S1190.84 879.18 1227.3 879.18S1266.03 906.83 1301.04 906.83S1339.38 902.86 1374.78 902.86S1413.26 908.37 1448.52 908.37S1486.5 892.97 1522.26 892.97S1559.63 907.17 1596 907.17S1632.95 890.18 1669.74 890.18S1706.79 911.01 1743.48 911.01S1782.35 883.61 1817.22 883.61S1856.5 916.33 1890.96 916.33S1929.72 892.99 1964.7 892.99S2003.98 875.67 2038.43 875.67L2020 976 L-100 976 Z;M-100 870.35C-62.98 889.82 -63 894.45 -26.26 894.45S12.47 909.54 47.48 909.54S85.93 905.28 121.22 905.28S159.21 884.78 194.96 884.78S233.96 895.44 268.7 895.44S307.2 882.45 342.43 882.45S380.17 895.75 416.17 895.75S453.99 878.87 489.91 878.87S527.55 911.96 563.65 911.96S600.6 873.35 637.39 873.35S675.36 876.52 711.13 876.52S748.83 869.44 784.87 869.44S822.72 906.56 858.61 906.56S896.16 913.95 932.35 913.95S971.24 897.2 1006.09 897.2S1043.96 890.85 1079.83 890.85S1117.54 876.11 1153.57 876.11S1192.37 884.27 1227.3 884.27S1265.83 872.7 1301.04 872.7S1339.03 870.29 1374.78 870.29S1412.11 907.47 1448.52 907.47S1486.13 901.74 1522.26 901.74S1559.84 895.74 1596 895.74S1633.92 901.74 1669.74 901.74S1707.05 906.45 1743.48 906.45S1780.76 888.33 1817.22 888.33S1856.46 898.89 1890.96 898.89S1928.23 874.84 1964.7 874.84S2002.9 894.81 2038.43 894.81L2020 976 L-100 976 Z"></animate>
  <animateTransform attributeName="transform" type="translate" dur="12.5s" begin="-6.25s" repeatCount="indefinite" values="0;10;0" calcMode="spline" keySplines="0.3 0 0.7 1;0.3 0 0.7 1"></animateTransform>
</path><path d="M-100 878.69C-61.68 879.68 -60.52 912.28 -24.01 912.28S15.95 902.65 51.97 902.65S90.51 921.45 127.96 921.45S167.11 902.27 203.94 902.27S243.61 916.27 279.93 916.27S318.36 890.82 355.91 890.82S394.77 883.57 431.9 883.57S470.74 893.01 507.89 893.01S545.94 912.81 583.87 912.81S623.47 891.91 659.86 891.91S698.32 908.8 735.84 908.8S775.15 894.47 811.83 894.47S850.57 893.53 887.81 893.53S927.63 887.85 963.8 887.85S1003.55 920.06 1039.78 920.06S1078.24 897.79 1115.77 897.79S1153.93 908.29 1191.76 908.29S1231.64 887.86 1267.74 887.86S1307.95 917.34 1343.73 917.34S1383.75 894.99 1419.71 894.99S1458.37 912.03 1495.7 912.03S1534.75 885.94 1571.68 885.94S1610.59 907.82 1647.67 907.82S1688.03 891.85 1723.66 891.85S1762.05 909.12 1799.64 909.12S1838.66 889.1 1875.63 889.1S1915.88 921.91 1951.61 921.91S1989.66 890.64 2027.6 890.64L2020 976 L-100 976 Z" fill="#95a6a7" stroke-width="0">
  <animate attributeName="d" dur="10s" repeatCount="indefinite" values="M-100 878.69C-61.68 879.68 -60.52 912.28 -24.01 912.28S15.95 902.65 51.97 902.65S90.51 921.45 127.96 921.45S167.11 902.27 203.94 902.27S243.61 916.27 279.93 916.27S318.36 890.82 355.91 890.82S394.77 883.57 431.9 883.57S470.74 893.01 507.89 893.01S545.94 912.81 583.87 912.81S623.47 891.91 659.86 891.91S698.32 908.8 735.84 908.8S775.15 894.47 811.83 894.47S850.57 893.53 887.81 893.53S927.63 887.85 963.8 887.85S1003.55 920.06 1039.78 920.06S1078.24 897.79 1115.77 897.79S1153.93 908.29 1191.76 908.29S1231.64 887.86 1267.74 887.86S1307.95 917.34 1343.73 917.34S1383.75 894.99 1419.71 894.99S1458.37 912.03 1495.7 912.03S1534.75 885.94 1571.68 885.94S1610.59 907.82 1647.67 907.82S1688.03 891.85 1723.66 891.85S1762.05 909.12 1799.64 909.12S1838.66 889.1 1875.63 889.1S1915.88 921.91 1951.61 921.91S1989.66 890.64 2027.6 890.64L2020 976 L-100 976 Z;M-100 883.98C-60.3 879.56 -60.15 920.36 -24.01 920.36S14.43 890.31 51.97 890.31S91.9 926.99 127.96 926.99S168.04 900.73 203.94 900.73S242.62 897.66 279.93 897.66S317.95 885.79 355.91 885.79S395.69 917.75 431.9 917.75S472.15 887.28 507.89 887.28S547.66 918.67 583.87 918.67S623.96 894.17 659.86 894.17S699.02 891.07 735.84 891.07S775.76 931.58 811.83 931.58S850.13 916.83 887.81 916.83S927.55 922.67 963.8 922.67S1002.97 926.5 1039.78 926.5S1078.43 898.37 1115.77 898.37S1154.47 926.01 1191.76 926.01S1231.18 892.9 1267.74 892.9S1307.85 929.6 1343.73 929.6S1381.8 882.26 1419.71 882.26S1458.85 894.21 1495.7 894.21S1534.28 887.09 1571.68 887.09S1610.79 916.59 1647.67 916.59S1687.37 888.89 1723.66 888.89S1763.54 919.44 1799.64 919.44S1837.65 891.13 1875.63 891.13S1914.73 929.39 1951.61 929.39S1991.89 884.74 2027.6 884.74L2020 976 L-100 976 Z;M-100 878.69C-61.68 879.68 -60.52 912.28 -24.01 912.28S15.95 902.65 51.97 902.65S90.51 921.45 127.96 921.45S167.11 902.27 203.94 902.27S243.61 916.27 279.93 916.27S318.36 890.82 355.91 890.82S394.77 883.57 431.9 883.57S470.74 893.01 507.89 893.01S545.94 912.81 583.87 912.81S623.47 891.91 659.86 891.91S698.32 908.8 735.84 908.8S775.15 894.47 811.83 894.47S850.57 893.53 887.81 893.53S927.63 887.85 963.8 887.85S1003.55 920.06 1039.78 920.06S1078.24 897.79 1115.77 897.79S1153.93 908.29 1191.76 908.29S1231.64 887.86 1267.74 887.86S1307.95 917.34 1343.73 917.34S1383.75 894.99 1419.71 894.99S1458.37 912.03 1495.7 912.03S1534.75 885.94 1571.68 885.94S1610.59 907.82 1647.67 907.82S1688.03 891.85 1723.66 891.85S1762.05 909.12 1799.64 909.12S1838.66 889.1 1875.63 889.1S1915.88 921.91 1951.61 921.91S1989.66 890.64 2027.6 890.64L2020 976 L-100 976 Z"></animate>
  <animateTransform attributeName="transform" type="translate" dur="10s" begin="-6s" repeatCount="indefinite" values="0;10;0" calcMode="spline" keySplines="0.3 0 0.7 1;0.3 0 0.7 1"></animateTransform>
</path><path d="M-100 903.18C-59.86 906.69 -59.14 941.31 -21.63 941.31S18.78 905.78 56.75 905.78S98.16 935.76 135.12 935.76S176.01 908.19 213.49 908.19S253.6 893.6 291.87 893.6S332.18 907.14 370.24 907.14S410.74 922.75 448.61 922.75S488.91 904.52 526.99 904.52S567.39 896.71 605.36 896.71S645.76 893.72 683.73 893.72S725.15 937.1 762.11 937.1S803.25 892.14 840.48 892.14S879.93 932.11 918.85 932.11S958.84 911.91 997.23 911.91S1038.18 924.72 1075.6 924.72S1116.4 929.29 1153.97 929.29S1194.1 931.96 1232.35 931.96S1273.29 906.43 1310.72 906.43S1351.43 929.63 1389.09 929.63S1429.98 904.43 1467.47 904.43S1506.68 937.04 1545.84 937.04S1585.69 892.45 1624.21 892.45S1663.85 925 1702.59 925S1743.8 892.2 1780.96 892.2S1820.28 937.94 1859.33 937.94S1899.3 898.52 1937.71 898.52S1978.15 944.19 2016.08 944.19S2056.58 891.04 2094.45 891.04L2020 976 L-100 976 Z" fill="#adbcbc" stroke-width="0">
  <animate attributeName="d" dur="7.5s" repeatCount="indefinite" values="M-100 903.18C-59.86 906.69 -59.14 941.31 -21.63 941.31S18.78 905.78 56.75 905.78S98.16 935.76 135.12 935.76S176.01 908.19 213.49 908.19S253.6 893.6 291.87 893.6S332.18 907.14 370.24 907.14S410.74 922.75 448.61 922.75S488.91 904.52 526.99 904.52S567.39 896.71 605.36 896.71S645.76 893.72 683.73 893.72S725.15 937.1 762.11 937.1S803.25 892.14 840.48 892.14S879.93 932.11 918.85 932.11S958.84 911.91 997.23 911.91S1038.18 924.72 1075.6 924.72S1116.4 929.29 1153.97 929.29S1194.1 931.96 1232.35 931.96S1273.29 906.43 1310.72 906.43S1351.43 929.63 1389.09 929.63S1429.98 904.43 1467.47 904.43S1506.68 937.04 1545.84 937.04S1585.69 892.45 1624.21 892.45S1663.85 925 1702.59 925S1743.8 892.2 1780.96 892.2S1820.28 937.94 1859.33 937.94S1899.3 898.52 1937.71 898.52S1978.15 944.19 2016.08 944.19S2056.58 891.04 2094.45 891.04L2020 976 L-100 976 Z;M-100 899.6C-58.45 899.22 -60.72 939 -21.63 939S19.67 944.29 56.75 944.29S96.29 927.89 135.12 927.89S175.7 906.21 213.49 906.21S252.87 935.89 291.87 935.89S333.1 912.19 370.24 912.19S409.91 928.83 448.61 928.83S488.63 903.51 526.99 903.51S568.57 924.53 605.36 924.53S645.34 943.51 683.73 943.51S723.84 939.34 762.11 939.34S802.05 896.12 840.48 896.12S880.65 903.14 918.85 903.14S960 898.97 997.23 898.97S1037.56 926.15 1075.6 926.15S1115.55 893.33 1153.97 893.33S1194.44 926.07 1232.35 926.07S1273.4 943.84 1310.72 943.84S1351.12 934.93 1389.09 934.93S1430.05 895.29 1467.47 895.29S1508.59 939.75 1545.84 939.75S1585.97 900.98 1624.21 900.98S1663.77 925.41 1702.59 925.41S1743.04 903.88 1780.96 903.88S1821.12 929.17 1859.33 929.17S1899.04 935.97 1937.71 935.97S1978.38 939.11 2016.08 939.11S2056.13 902.63 2094.45 902.63L2020 976 L-100 976 Z;M-100 903.18C-59.86 906.69 -59.14 941.31 -21.63 941.31S18.78 905.78 56.75 905.78S98.16 935.76 135.12 935.76S176.01 908.19 213.49 908.19S253.6 893.6 291.87 893.6S332.18 907.14 370.24 907.14S410.74 922.75 448.61 922.75S488.91 904.52 526.99 904.52S567.39 896.71 605.36 896.71S645.76 893.72 683.73 893.72S725.15 937.1 762.11 937.1S803.25 892.14 840.48 892.14S879.93 932.11 918.85 932.11S958.84 911.91 997.23 911.91S1038.18 924.72 1075.6 924.72S1116.4 929.29 1153.97 929.29S1194.1 931.96 1232.35 931.96S1273.29 906.43 1310.72 906.43S1351.43 929.63 1389.09 929.63S1429.98 904.43 1467.47 904.43S1506.68 937.04 1545.84 937.04S1585.69 892.45 1624.21 892.45S1663.85 925 1702.59 925S1743.8 892.2 1780.96 892.2S1820.28 937.94 1859.33 937.94S1899.3 898.52 1937.71 898.52S1978.15 944.19 2016.08 944.19S2056.58 891.04 2094.45 891.04L2020 976 L-100 976 Z"></animate>
  <animateTransform attributeName="transform" type="translate" dur="7.5s" begin="-5.25s" repeatCount="indefinite" values="0;10;0" calcMode="spline" keySplines="0.3 0 0.7 1;0.3 0 0.7 1"></animateTransform>
</path><path d="M-100 954.36C-57.28 958.88 -58.36 948.14 -19.08 948.14S21.85 916.33 61.83 916.33S104.2 949.64 142.75 949.64S184.28 921.64 223.66 921.64S264.34 958.63 304.58 958.63S345.12 900.25 385.5 900.25S426.27 901.47 466.41 901.47S507.51 916.34 547.33 916.34S588.81 957.7 628.24 957.7S670.27 915.14 709.16 915.14S750.16 912.14 790.08 912.14S832.25 910.05 870.99 910.05S911.59 947.45 951.91 947.45S994.58 910.33 1032.82 910.33S1075.26 958 1113.74 958S1155.35 916.69 1194.66 916.69S1235.44 956.57 1275.57 956.57S1318.21 921.36 1356.49 921.36S1398.15 947.49 1437.4 947.49S1479.38 899.29 1518.32 899.29S1560.77 957.33 1599.24 957.33S1640.6 920.21 1680.15 920.21S1722.81 908.69 1761.07 908.69S1803.77 900.27 1841.98 900.27S1884.18 951.41 1922.9 951.41S1963.48 911.63 2003.82 911.63S2045.63 955.94 2084.73 955.94L2020 976 L-100 976 Z" fill="#c6d2d2" stroke-width="0">
  <animate attributeName="d" dur="5s" repeatCount="indefinite" values="M-100 954.36C-57.28 958.88 -58.36 948.14 -19.08 948.14S21.85 916.33 61.83 916.33S104.2 949.64 142.75 949.64S184.28 921.64 223.66 921.64S264.34 958.63 304.58 958.63S345.12 900.25 385.5 900.25S426.27 901.47 466.41 901.47S507.51 916.34 547.33 916.34S588.81 957.7 628.24 957.7S670.27 915.14 709.16 915.14S750.16 912.14 790.08 912.14S832.25 910.05 870.99 910.05S911.59 947.45 951.91 947.45S994.58 910.33 1032.82 910.33S1075.26 958 1113.74 958S1155.35 916.69 1194.66 916.69S1235.44 956.57 1275.57 956.57S1318.21 921.36 1356.49 921.36S1398.15 947.49 1437.4 947.49S1479.38 899.29 1518.32 899.29S1560.77 957.33 1599.24 957.33S1640.6 920.21 1680.15 920.21S1722.81 908.69 1761.07 908.69S1803.77 900.27 1841.98 900.27S1884.18 951.41 1922.9 951.41S1963.48 911.63 2003.82 911.63S2045.63 955.94 2084.73 955.94L2020 976 L-100 976 Z;M-100 914.67C-59.49 898.91 -58.54 915.07 -19.08 915.07S22.36 912.36 61.83 912.36S102.98 937.1 142.75 937.1S185.12 905.2 223.66 905.2S266 940.83 304.58 940.83S345.87 919.89 385.5 919.89S426.88 937.1 466.41 937.1S507.04 912.97 547.33 912.97S589.89 957.24 628.24 957.24S670.06 917.57 709.16 917.57S751.36 942.09 790.08 942.09S832.19 898.98 870.99 898.98S913.57 950.92 951.91 950.92S992.57 921.39 1032.82 921.39S1074.79 953.47 1113.74 953.47S1155.44 900.17 1194.66 900.17S1237.17 950.34 1275.57 950.34S1318.31 919.32 1356.49 919.32S1397.66 954.84 1437.4 954.84S1478.21 902.68 1518.32 902.68S1559 950.41 1599.24 950.41S1641.37 917.88 1680.15 917.88S1721.67 956.26 1761.07 956.26S1801.88 920.8 1841.98 920.8S1884.17 947.52 1922.9 947.52S1965.15 907.98 2003.82 907.98S2046.35 957.98 2084.73 957.98L2020 976 L-100 976 Z;M-100 954.36C-57.28 958.88 -58.36 948.14 -19.08 948.14S21.85 916.33 61.83 916.33S104.2 949.64 142.75 949.64S184.28 921.64 223.66 921.64S264.34 958.63 304.58 958.63S345.12 900.25 385.5 900.25S426.27 901.47 466.41 901.47S507.51 916.34 547.33 916.34S588.81 957.7 628.24 957.7S670.27 915.14 709.16 915.14S750.16 912.14 790.08 912.14S832.25 910.05 870.99 910.05S911.59 947.45 951.91 947.45S994.58 910.33 1032.82 910.33S1075.26 958 1113.74 958S1155.35 916.69 1194.66 916.69S1235.44 956.57 1275.57 956.57S1318.21 921.36 1356.49 921.36S1398.15 947.49 1437.4 947.49S1479.38 899.29 1518.32 899.29S1560.77 957.33 1599.24 957.33S1640.6 920.21 1680.15 920.21S1722.81 908.69 1761.07 908.69S1803.77 900.27 1841.98 900.27S1884.18 951.41 1922.9 951.41S1963.48 911.63 2003.82 911.63S2045.63 955.94 2084.73 955.94L2020 976 L-100 976 Z"></animate>
  <animateTransform attributeName="transform" type="translate" dur="5s" begin="-4s" repeatCount="indefinite" values="0;10;0" calcMode="spline" keySplines="0.3 0 0.7 1;0.3 0 0.7 1"></animateTransform>
</path><path d="M-100 917.83C-57.84 927.54 -56.48 960.6 -16.37 960.6S27.2 920.11 67.26 920.11S110.78 953.96 150.89 953.96S194.11 925.73 234.52 925.73S276.96 964.48 318.15 964.48S360.94 959.32 401.78 959.32S443.9 924.26 485.4 924.26S529.02 910.13 569.03 910.13S612.57 954.65 652.66 954.65S694.66 908.55 736.29 908.55S780.04 955.83 819.92 955.83S862.8 958.22 903.55 958.22S947.56 973.7 987.18 973.7S1029.09 909.42 1070.81 909.42S1114 969.76 1154.44 969.76S1198 922.4 1238.07 922.4S1282.05 974.81 1321.7 974.81S1364.12 924.15 1405.33 924.15S1448.06 965.46 1488.95 965.46S1530.88 928.13 1572.58 928.13S1615.89 911.25 1656.21 911.25S1698.86 961.91 1739.84 961.91S1783.3 959.23 1823.47 959.23S1866.16 924.28 1907.1 924.28S1951.04 952.83 1990.73 952.83S2032.69 909.44 2074.36 909.44L2020 976 L-100 976 Z" fill="#dfe8e8" stroke-width="0">
  <animate attributeName="d" dur="2.5s" repeatCount="indefinite" values="M-100 917.83C-57.84 927.54 -56.48 960.6 -16.37 960.6S27.2 920.11 67.26 920.11S110.78 953.96 150.89 953.96S194.11 925.73 234.52 925.73S276.96 964.48 318.15 964.48S360.94 959.32 401.78 959.32S443.9 924.26 485.4 924.26S529.02 910.13 569.03 910.13S612.57 954.65 652.66 954.65S694.66 908.55 736.29 908.55S780.04 955.83 819.92 955.83S862.8 958.22 903.55 958.22S947.56 973.7 987.18 973.7S1029.09 909.42 1070.81 909.42S1114 969.76 1154.44 969.76S1198 922.4 1238.07 922.4S1282.05 974.81 1321.7 974.81S1364.12 924.15 1405.33 924.15S1448.06 965.46 1488.95 965.46S1530.88 928.13 1572.58 928.13S1615.89 911.25 1656.21 911.25S1698.86 961.91 1739.84 961.91S1783.3 959.23 1823.47 959.23S1866.16 924.28 1907.1 924.28S1951.04 952.83 1990.73 952.83S2032.69 909.44 2074.36 909.44L2020 976 L-100 976 Z;M-100 922.68C-57.85 916.53 -55.94 974.71 -16.37 974.71S26.54 913.29 67.26 913.29S110.1 957.1 150.89 957.1S193.99 909.07 234.52 909.07S277.7 954.39 318.15 954.39S361.07 908.09 401.78 908.09S444.6 961.74 485.4 961.74S528.9 910.96 569.03 910.96S612.32 969.7 652.66 969.7S695.49 923.84 736.29 923.84S778.69 968.04 819.92 968.04S862.8 931.45 903.55 931.45S945.46 969.71 987.18 969.71S1029.36 914.76 1070.81 914.76S1113.82 968.33 1154.44 968.33S1197.54 963.59 1238.07 963.59S1281.49 915.41 1321.7 915.41S1364.18 914.12 1405.33 914.12S1449.37 964.51 1488.95 964.51S1532.91 974.86 1572.58 974.86S1615.58 972.61 1656.21 972.61S1698.11 965.19 1739.84 965.19S1782.3 963.14 1823.47 963.14S1867.27 910.82 1907.1 910.82S1950.96 955.6 1990.73 955.6S2033.2 921.44 2074.36 921.44L2020 976 L-100 976 Z;M-100 917.83C-57.84 927.54 -56.48 960.6 -16.37 960.6S27.2 920.11 67.26 920.11S110.78 953.96 150.89 953.96S194.11 925.73 234.52 925.73S276.96 964.48 318.15 964.48S360.94 959.32 401.78 959.32S443.9 924.26 485.4 924.26S529.02 910.13 569.03 910.13S612.57 954.65 652.66 954.65S694.66 908.55 736.29 908.55S780.04 955.83 819.92 955.83S862.8 958.22 903.55 958.22S947.56 973.7 987.18 973.7S1029.09 909.42 1070.81 909.42S1114 969.76 1154.44 969.76S1198 922.4 1238.07 922.4S1282.05 974.81 1321.7 974.81S1364.12 924.15 1405.33 924.15S1448.06 965.46 1488.95 965.46S1530.88 928.13 1572.58 928.13S1615.89 911.25 1656.21 911.25S1698.86 961.91 1739.84 961.91S1783.3 959.23 1823.47 959.23S1866.16 924.28 1907.1 924.28S1951.04 952.83 1990.73 952.83S2032.69 909.44 2074.36 909.44L2020 976 L-100 976 Z"></animate>
  <animateTransform attributeName="transform" type="translate" dur="2.5s" begin="-2.25s" repeatCount="indefinite" values="0;10;0" calcMode="spline" keySplines="0.3 0 0.7 1;0.3 0 0.7 1"></animateTransform>
</path></g>
</svg>