<?xml version="1.0" encoding="utf-8"?>
<svg xmlns="http://www.w3.org/2000/svg" xmlns:xlink="http://www.w3.org/1999/xlink" style="margin: auto; background: rgb(0, 17, 28); display: block; z-index: 1; position: relative; shape-rendering: auto;" width="1920" height="976" preserveAspectRatio="xMidYMid" viewBox="0 0 1920 976">
<g transform="translate(960,488) scale(1,1) translate(-960,-488)"><path d="M-100 694.96C-65.33 698.12 -65.41 697.98 -31.61 697.98S4.34 674.19 36.77 674.19S72.53 685.97 105.16 685.97S139.98 696.41 173.55 696.41S208.66 689.57 241.94 689.57S277.59 677.32 310.32 677.32S346.16 688.46 378.71 688.46S415.71 701.15 447.1 701.15S481.53 681.18 515.48 681.18S552.03 682.31 583.87 682.31S619.75 690.78 652.26 690.78S688.48 673.56 720.65 673.56S755.1 695.21 789.03 695.21S824.54 701.95 857.42 701.95S893.01 691.98 925.81 691.98S961.16 700.86 994.19 700.86S1030.66 688.58 1062.58 688.58S1099.46 699.11 1130.97 699.11S1166.22 676.45 1199.35 676.45S1236.32 696.93 1267.74 696.93S1302.47 693.98 1336.13 693.98S1373.25 688.54 1404.52 688.54S1441.59 687.52 1472.9 687.52S1507.93 697.2 1541.29 697.2S1576.44 676.67 1609.68 676.67S1644.06 698.26 1678.06 698.26S1715.02 694.24 1746.45 694.24S1781.45 681.97 1814.84 681.97S1850.47 688.74 1883.23 688.74S1917.45 674.56 1951.61 674.56S1986.04 673.9 2020 673.9S2057.38 689.91 2088.39 689.91L2020 976 L-100 976 Z" fill="#0f3135" stroke-width="0">
  <animate attributeName="d" dur="22.22222222222222s" repeatCount="indefinite" values="M-100 694.96C-65.33 698.12 -65.41 697.98 -31.61 697.98S4.34 674.19 36.77 674.19S72.53 685.97 105.16 685.97S139.98 696.41 173.55 696.41S208.66 689.57 241.94 689.57S277.59 677.32 310.32 677.32S346.16 688.46 378.71 688.46S415.71 701.15 447.1 701.15S481.53 681.18 515.48 681.18S552.03 682.31 583.87 682.31S619.75 690.78 652.26 690.78S688.48 673.56 720.65 673.56S755.1 695.21 789.03 695.21S824.54 701.95 857.42 701.95S893.01 691.98 925.81 691.98S961.16 700.86 994.19 700.86S1030.66 688.58 1062.58 688.58S1099.46 699.11 1130.97 699.11S1166.22 676.45 1199.35 676.45S1236.32 696.93 1267.74 696.93S1302.47 693.98 1336.13 693.98S1373.25 688.54 1404.52 688.54S1441.59 687.52 1472.9 687.52S1507.93 697.2 1541.29 697.2S1576.44 676.67 1609.68 676.67S1644.06 698.26 1678.06 698.26S1715.02 694.24 1746.45 694.24S1781.45 681.97 1814.84 681.97S1850.47 688.74 1883.23 688.74S1917.45 674.56 1951.61 674.56S1986.04 673.9 2020 673.9S2057.38 689.91 2088.39 689.91L2020 976 L-100 976 Z;M-100 679.37C-62.81 693.01 -64.19 675.1 -31.61 675.1S3.32 703.78 36.77 703.78S72.85 697.6 105.16 697.6S141.19 678.58 173.55 678.58S210.25 679.81 241.94 679.81S277.66 700.44 310.32 700.44S346.24 678.45 378.71 678.45S413.39 686.24 447.1 686.24S481.43 684.35 515.48 684.35S552.39 675.52 583.87 675.52S620.77 678.84 652.26 678.84S688.91 702.41 720.65 702.41S755.49 698.28 789.03 698.28S824.25 698.15 857.42 698.15S891.71 688.53 925.81 688.53S960.55 699.67 994.19 699.67S1029.57 694.35 1062.58 694.35S1099.57 688.36 1130.97 688.36S1165.17 684.03 1199.35 684.03S1234.45 674.82 1267.74 674.82S1303.6 681.14 1336.13 681.14S1372.29 680.8 1404.52 680.8S1441.13 701.65 1472.9 701.65S1508.57 696.19 1541.29 696.19S1576.79 700.28 1609.68 700.28S1646.46 674.84 1678.06 674.84S1713.17 674.31 1746.45 674.31S1781.39 684.89 1814.84 684.89S1850.52 704.71 1883.23 704.71S1918.68 684.38 1951.61 684.38S1987.86 704.91 2020 704.91S2055.27 703.78 2088.39 703.78L2020 976 L-100 976 Z;M-100 694.96C-65.33 698.12 -65.41 697.98 -31.61 697.98S4.34 674.19 36.77 674.19S72.53 685.97 105.16 685.97S139.98 696.41 173.55 696.41S208.66 689.57 241.94 689.57S277.59 677.32 310.32 677.32S346.16 688.46 378.71 688.46S415.71 701.15 447.1 701.15S481.53 681.18 515.48 681.18S552.03 682.31 583.87 682.31S619.75 690.78 652.26 690.78S688.48 673.56 720.65 673.56S755.1 695.21 789.03 695.21S824.54 701.95 857.42 701.95S893.01 691.98 925.81 691.98S961.16 700.86 994.19 700.86S1030.66 688.58 1062.58 688.58S1099.46 699.11 1130.97 699.11S1166.22 676.45 1199.35 676.45S1236.32 696.93 1267.74 696.93S1302.47 693.98 1336.13 693.98S1373.25 688.54 1404.52 688.54S1441.59 687.52 1472.9 687.52S1507.93 697.2 1541.29 697.2S1576.44 676.67 1609.68 676.67S1644.06 698.26 1678.06 698.26S1715.02 694.24 1746.45 694.24S1781.45 681.97 1814.84 681.97S1850.47 688.74 1883.23 688.74S1917.45 674.56 1951.61 674.56S1986.04 673.9 2020 673.9S2057.38 689.91 2088.39 689.91L2020 976 L-100 976 Z"></animate>
  <animateTransform attributeName="transform" type="translate" dur="22.22222222222222s" begin="0s" repeatCount="indefinite" values="0;10;0" calcMode="spline" keySplines="0.3 0 0.7 1;0.3 0 0.7 1"></animateTransform>
</path><path d="M-100 702.12C-64.39 713.43 -63.43 720.02 -29.8 720.02S7.88 716.32 40.4 716.32S76.25 722.7 110.6 722.7S146.94 711.14 180.79 711.14S217.63 726.74 250.99 726.74S287.19 721.11 321.19 721.11S358.21 718.08 391.39 718.08S427.69 703.06 461.59 703.06S497.49 710.8 531.79 710.8S569.03 693.93 601.99 693.93S638.66 704.31 672.19 704.31S710.17 713.46 742.38 713.46S779.12 704.75 812.58 704.75S850.16 710.62 882.78 710.62S918.1 693.7 952.98 693.7S989.32 721.11 1023.18 721.11S1061.18 696.57 1093.38 696.57S1130.82 716.26 1163.58 716.26S1201.5 702.92 1233.77 702.92S1270.52 715.12 1303.97 715.12S1341.69 720.7 1374.17 720.7S1412.31 715.65 1444.37 715.65S1481.65 716.41 1514.57 716.41S1552.38 700.67 1584.77 700.67S1622.06 721.84 1654.97 721.84S1693.03 721.17 1725.17 721.17S1760.78 720.71 1795.36 720.71S1830.5 717.79 1865.56 717.79S1902.17 722.34 1935.76 722.34S1972.94 697.66 2005.96 697.66S2044.15 726.65 2076.16 726.65L2020 976 L-100 976 Z" fill="#254346" stroke-width="0">
  <animate attributeName="d" dur="20s" repeatCount="indefinite" values="M-100 702.12C-64.39 713.43 -63.43 720.02 -29.8 720.02S7.88 716.32 40.4 716.32S76.25 722.7 110.6 722.7S146.94 711.14 180.79 711.14S217.63 726.74 250.99 726.74S287.19 721.11 321.19 721.11S358.21 718.08 391.39 718.08S427.69 703.06 461.59 703.06S497.49 710.8 531.79 710.8S569.03 693.93 601.99 693.93S638.66 704.31 672.19 704.31S710.17 713.46 742.38 713.46S779.12 704.75 812.58 704.75S850.16 710.62 882.78 710.62S918.1 693.7 952.98 693.7S989.32 721.11 1023.18 721.11S1061.18 696.57 1093.38 696.57S1130.82 716.26 1163.58 716.26S1201.5 702.92 1233.77 702.92S1270.52 715.12 1303.97 715.12S1341.69 720.7 1374.17 720.7S1412.31 715.65 1444.37 715.65S1481.65 716.41 1514.57 716.41S1552.38 700.67 1584.77 700.67S1622.06 721.84 1654.97 721.84S1693.03 721.17 1725.17 721.17S1760.78 720.71 1795.36 720.71S1830.5 717.79 1865.56 717.79S1902.17 722.34 1935.76 722.34S1972.94 697.66 2005.96 697.66S2044.15 726.65 2076.16 726.65L2020 976 L-100 976 Z;M-100 721.42C-63.18 722.65 -62.5 715.76 -29.8 715.76S7.37 711.4 40.4 711.4S77.95 716.59 110.6 716.59S148.85 692.56 180.79 692.56S217.83 726.37 250.99 726.37S287.59 693.82 321.19 693.82S358.11 700.68 391.39 700.68S428.83 693.84 461.59 693.84S498.6 713.21 531.79 713.21S569.75 720.84 601.99 720.84S639.64 697.55 672.19 697.55S708.94 716.32 742.38 716.32S778.88 700.53 812.58 700.53S850.4 717.28 882.78 717.28S919.78 698.51 952.98 698.51S988.2 701.26 1023.18 701.26S1059.44 712.14 1093.38 712.14S1131.29 694.1 1163.58 694.1S1200.84 710.55 1233.77 710.55S1271.28 720.07 1303.97 720.07S1341.3 705.25 1374.17 705.25S1411.42 724.91 1444.37 724.91S1481.4 702.56 1514.57 702.56S1550.57 694.26 1584.77 694.26S1622.07 703.63 1654.97 703.63S1692.93 703.45 1725.17 703.45S1762.68 704.47 1795.36 704.47S1833.06 698.67 1865.56 698.67S1902.04 724.13 1935.76 724.13S1971.7 706.1 2005.96 706.1S2044.07 708.53 2076.16 708.53L2020 976 L-100 976 Z;M-100 702.12C-64.39 713.43 -63.43 720.02 -29.8 720.02S7.88 716.32 40.4 716.32S76.25 722.7 110.6 722.7S146.94 711.14 180.79 711.14S217.63 726.74 250.99 726.74S287.19 721.11 321.19 721.11S358.21 718.08 391.39 718.08S427.69 703.06 461.59 703.06S497.49 710.8 531.79 710.8S569.03 693.93 601.99 693.93S638.66 704.31 672.19 704.31S710.17 713.46 742.38 713.46S779.12 704.75 812.58 704.75S850.16 710.62 882.78 710.62S918.1 693.7 952.98 693.7S989.32 721.11 1023.18 721.11S1061.18 696.57 1093.38 696.57S1130.82 716.26 1163.58 716.26S1201.5 702.92 1233.77 702.92S1270.52 715.12 1303.97 715.12S1341.69 720.7 1374.17 720.7S1412.31 715.65 1444.37 715.65S1481.65 716.41 1514.57 716.41S1552.38 700.67 1584.77 700.67S1622.06 721.84 1654.97 721.84S1693.03 721.17 1725.17 721.17S1760.78 720.71 1795.36 720.71S1830.5 717.79 1865.56 717.79S1902.17 722.34 1935.76 722.34S1972.94 697.66 2005.96 697.66S2044.15 726.65 2076.16 726.65L2020 976 L-100 976 Z"></animate>
  <animateTransform attributeName="transform" type="translate" dur="20s" begin="-2s" repeatCount="indefinite" values="0;10;0" calcMode="spline" keySplines="0.3 0 0.7 1;0.3 0 0.7 1"></animateTransform>
</path><path d="M-100 719.44C-63.82 734.55 -63.46 728.68 -27.89 728.68S11.01 725.56 44.22 725.56S83.28 740.99 116.33 740.99S154.53 710.54 188.44 710.54S225.6 743.81 260.54 743.81S296.85 720.03 332.65 720.03S371.08 742.07 404.76 742.07S441.07 732.75 476.87 732.75S514.12 735.16 548.98 735.16S588.05 741.77 621.09 741.77S657.8 747.93 693.2 747.93S729.93 724.56 765.31 724.56S803.98 734.29 837.41 734.29S876.42 714.73 909.52 714.73S948.74 750.94 981.63 750.94S1017.91 747 1053.74 747S1091.62 728.3 1125.85 728.3S1163.49 725.81 1197.96 725.81S1234.38 730.53 1270.07 730.53S1309.24 738.62 1342.18 738.62S1380.67 739.64 1414.29 739.64S1451.48 727.86 1486.39 727.86S1525.57 748.37 1558.5 748.37S1595.27 712.6 1630.61 712.6S1667.53 724.91 1702.72 724.91S1739.13 736.33 1774.83 736.33S1811.44 740.96 1846.94 740.96S1885.67 738 1919.05 738S1955.67 729.7 1991.16 729.7S2028.03 722.4 2063.27 722.4L2020 976 L-100 976 Z" fill="#3b5658" stroke-width="0">
  <animate attributeName="d" dur="17.77777777777778s" repeatCount="indefinite" values="M-100 719.44C-63.82 734.55 -63.46 728.68 -27.89 728.68S11.01 725.56 44.22 725.56S83.28 740.99 116.33 740.99S154.53 710.54 188.44 710.54S225.6 743.81 260.54 743.81S296.85 720.03 332.65 720.03S371.08 742.07 404.76 742.07S441.07 732.75 476.87 732.75S514.12 735.16 548.98 735.16S588.05 741.77 621.09 741.77S657.8 747.93 693.2 747.93S729.93 724.56 765.31 724.56S803.98 734.29 837.41 734.29S876.42 714.73 909.52 714.73S948.74 750.94 981.63 750.94S1017.91 747 1053.74 747S1091.62 728.3 1125.85 728.3S1163.49 725.81 1197.96 725.81S1234.38 730.53 1270.07 730.53S1309.24 738.62 1342.18 738.62S1380.67 739.64 1414.29 739.64S1451.48 727.86 1486.39 727.86S1525.57 748.37 1558.5 748.37S1595.27 712.6 1630.61 712.6S1667.53 724.91 1702.72 724.91S1739.13 736.33 1774.83 736.33S1811.44 740.96 1846.94 740.96S1885.67 738 1919.05 738S1955.67 729.7 1991.16 729.7S2028.03 722.4 2063.27 722.4L2020 976 L-100 976 Z;M-100 732.07C-61 715.19 -62.87 729.87 -27.89 729.87S9.77 712.03 44.22 712.03S80.44 738.94 116.33 738.94S154.84 736.33 188.44 736.33S224.77 721.75 260.54 721.75S299.68 732.68 332.65 732.68S370.34 735.87 404.76 735.87S443.86 713.06 476.87 713.06S514.55 745.54 548.98 745.54S587.26 738.67 621.09 738.67S659.2 742.33 693.2 742.33S732.28 719.9 765.31 719.9S801.61 726.11 837.41 726.11S874.11 723.53 909.52 723.53S946.57 741.13 981.63 741.13S1020.01 739.5 1053.74 739.5S1090.65 726.51 1125.85 726.51S1164.27 728 1197.96 728S1235.95 747.59 1270.07 747.59S1306.23 735.76 1342.18 735.76S1381.11 749.2 1414.29 749.2S1450.63 739.8 1486.39 739.8S1524.56 734.56 1558.5 734.56S1596.44 742.59 1630.61 742.59S1669.65 737.98 1702.72 737.98S1740.66 740.37 1774.83 740.37S1813.95 727.16 1846.94 727.16S1884.53 731 1919.05 731S1955.27 719.41 1991.16 719.41S2029.68 722.17 2063.27 722.17L2020 976 L-100 976 Z;M-100 719.44C-63.82 734.55 -63.46 728.68 -27.89 728.68S11.01 725.56 44.22 725.56S83.28 740.99 116.33 740.99S154.53 710.54 188.44 710.54S225.6 743.81 260.54 743.81S296.85 720.03 332.65 720.03S371.08 742.07 404.76 742.07S441.07 732.75 476.87 732.75S514.12 735.16 548.98 735.16S588.05 741.77 621.09 741.77S657.8 747.93 693.2 747.93S729.93 724.56 765.31 724.56S803.98 734.29 837.41 734.29S876.42 714.73 909.52 714.73S948.74 750.94 981.63 750.94S1017.91 747 1053.74 747S1091.62 728.3 1125.85 728.3S1163.49 725.81 1197.96 725.81S1234.38 730.53 1270.07 730.53S1309.24 738.62 1342.18 738.62S1380.67 739.64 1414.29 739.64S1451.48 727.86 1486.39 727.86S1525.57 748.37 1558.5 748.37S1595.27 712.6 1630.61 712.6S1667.53 724.91 1702.72 724.91S1739.13 736.33 1774.83 736.33S1811.44 740.96 1846.94 740.96S1885.67 738 1919.05 738S1955.67 729.7 1991.16 729.7S2028.03 722.4 2063.27 722.4L2020 976 L-100 976 Z"></animate>
  <animateTransform attributeName="transform" type="translate" dur="17.77777777777778s" begin="-3.555555555555556s" repeatCount="indefinite" values="0;10;0" calcMode="spline" keySplines="0.3 0 0.7 1;0.3 0 0.7 1"></animateTransform>
</path><path d="M-100 749.55C-60.87 757.95 -60.31 762.08 -25.87 762.08S12.25 760.79 48.25 760.79S86.17 740.59 122.38 740.59S161.25 729.24 196.5 729.24S234.62 750.48 270.63 750.48S310.61 755.08 344.76 755.08S381.84 741.65 418.88 741.65S458.08 740.28 493.01 740.28S532.21 742.51 567.13 742.51S605.28 757.89 641.26 757.89S680.26 773.21 715.38 773.21S753.32 754.45 789.51 754.45S829.38 762.72 863.64 762.72S903.87 738.14 937.76 738.14S976.8 755.31 1011.89 755.31S1049.59 751.79 1086.01 751.79S1123.35 765.47 1160.14 765.47S1200 731.4 1234.27 731.4S1274.19 749.39 1308.39 749.39S1348.62 756.52 1382.52 756.52S1420.34 737.03 1456.64 737.03S1494.4 742.25 1530.77 742.25S1568.73 756.88 1604.9 756.88S1644.27 773.04 1679.02 773.04S1717.04 761.73 1753.15 761.73S1792.76 751.34 1827.27 751.34S1864.75 750.07 1901.4 750.07S1938.9 756.91 1975.52 756.91S2015.01 756.44 2049.65 756.44L2020 976 L-100 976 Z" fill="#51696b" stroke-width="0">
  <animate attributeName="d" dur="15.555555555555555s" repeatCount="indefinite" values="M-100 749.55C-60.87 757.95 -60.31 762.08 -25.87 762.08S12.25 760.79 48.25 760.79S86.17 740.59 122.38 740.59S161.25 729.24 196.5 729.24S234.62 750.48 270.63 750.48S310.61 755.08 344.76 755.08S381.84 741.65 418.88 741.65S458.08 740.28 493.01 740.28S532.21 742.51 567.13 742.51S605.28 757.89 641.26 757.89S680.26 773.21 715.38 773.21S753.32 754.45 789.51 754.45S829.38 762.72 863.64 762.72S903.87 738.14 937.76 738.14S976.8 755.31 1011.89 755.31S1049.59 751.79 1086.01 751.79S1123.35 765.47 1160.14 765.47S1200 731.4 1234.27 731.4S1274.19 749.39 1308.39 749.39S1348.62 756.52 1382.52 756.52S1420.34 737.03 1456.64 737.03S1494.4 742.25 1530.77 742.25S1568.73 756.88 1604.9 756.88S1644.27 773.04 1679.02 773.04S1717.04 761.73 1753.15 761.73S1792.76 751.34 1827.27 751.34S1864.75 750.07 1901.4 750.07S1938.9 756.91 1975.52 756.91S2015.01 756.44 2049.65 756.44L2020 976 L-100 976 Z;M-100 754.71C-61.58 739.41 -62.41 740.49 -25.87 740.49S11.42 734.36 48.25 734.36S85.62 759.03 122.38 759.03S160.17 731.38 196.5 731.38S234.76 771.25 270.63 771.25S309.94 741.46 344.76 741.46S384.04 767.27 418.88 767.27S458.06 752.75 493.01 752.75S530.13 751.1 567.13 751.1S606.16 733.71 641.26 733.71S679.8 758.29 715.38 758.29S754.19 757.08 789.51 757.08S826.58 766.68 863.64 766.68S902.3 729.42 937.76 729.42S976.68 759.42 1011.89 759.42S1050.24 759.67 1086.01 759.67S1125.62 735.46 1160.14 735.46S1198.46 732.47 1234.27 732.47S1273.38 746 1308.39 746S1346.16 731.87 1382.52 731.87S1420.59 762.16 1456.64 762.16S1496 736.76 1530.77 736.76S1569.28 752.36 1604.9 752.36S1642.49 737.06 1679.02 737.06S1718.69 758.27 1753.15 758.27S1790.35 761.19 1827.27 761.19S1866.76 760.32 1901.4 760.32S1939.55 753.33 1975.52 753.33S2012.6 765.62 2049.65 765.62L2020 976 L-100 976 Z;M-100 749.55C-60.87 757.95 -60.31 762.08 -25.87 762.08S12.25 760.79 48.25 760.79S86.17 740.59 122.38 740.59S161.25 729.24 196.5 729.24S234.62 750.48 270.63 750.48S310.61 755.08 344.76 755.08S381.84 741.65 418.88 741.65S458.08 740.28 493.01 740.28S532.21 742.51 567.13 742.51S605.28 757.89 641.26 757.89S680.26 773.21 715.38 773.21S753.32 754.45 789.51 754.45S829.38 762.72 863.64 762.72S903.87 738.14 937.76 738.14S976.8 755.31 1011.89 755.31S1049.59 751.79 1086.01 751.79S1123.35 765.47 1160.14 765.47S1200 731.4 1234.27 731.4S1274.19 749.39 1308.39 749.39S1348.62 756.52 1382.52 756.52S1420.34 737.03 1456.64 737.03S1494.4 742.25 1530.77 742.25S1568.73 756.88 1604.9 756.88S1644.27 773.04 1679.02 773.04S1717.04 761.73 1753.15 761.73S1792.76 751.34 1827.27 751.34S1864.75 750.07 1901.4 750.07S1938.9 756.91 1975.52 756.91S2015.01 756.44 2049.65 756.44L2020 976 L-100 976 Z"></animate>
  <animateTransform attributeName="transform" type="translate" dur="15.555555555555555s" begin="-4.666666666666666s" repeatCount="indefinite" values="0;10;0" calcMode="spline" keySplines="0.3 0 0.7 1;0.3 0 0.7 1"></animateTransform>
</path><path d="M-100 753.53C-58.92 748.43 -60.94 782.41 -23.74 782.41S15.38 765.19 52.52 765.19S92.93 796.05 128.78 796.05S168.06 750.04 205.04 750.04S243.31 796.63 281.29 796.63S319.71 757.34 357.55 757.34S396.08 781.99 433.81 781.99S474.21 751.94 510.07 751.94S548.75 761.54 586.33 761.54S626.59 796.62 662.59 796.62S703.67 791.29 738.85 791.29S777.93 758.69 815.11 758.69S854.28 756.21 891.37 756.21S930.81 773.91 967.63 773.91S1008.09 776.6 1043.88 776.6S1084.04 759.32 1120.14 759.32S1160.58 766.94 1196.4 766.94S1236.7 773.74 1272.66 773.74S1311.53 775.49 1348.92 775.49S1388.26 768.72 1425.18 768.72S1464.4 788.6 1501.44 788.6S1542.77 762.96 1577.7 762.96S1617.16 776.52 1653.96 776.52S1694.39 750.73 1730.22 750.73S1770.89 768.79 1806.47 768.79S1844.97 782.48 1882.73 782.48S1922.88 770.66 1958.99 770.66S1997.56 773.34 2035.25 773.34L2020 976 L-100 976 Z" fill="#677d7f" stroke-width="0">
  <animate attributeName="d" dur="13.333333333333332s" repeatCount="indefinite" values="M-100 753.53C-58.92 748.43 -60.94 782.41 -23.74 782.41S15.38 765.19 52.52 765.19S92.93 796.05 128.78 796.05S168.06 750.04 205.04 750.04S243.31 796.63 281.29 796.63S319.71 757.34 357.55 757.34S396.08 781.99 433.81 781.99S474.21 751.94 510.07 751.94S548.75 761.54 586.33 761.54S626.59 796.62 662.59 796.62S703.67 791.29 738.85 791.29S777.93 758.69 815.11 758.69S854.28 756.21 891.37 756.21S930.81 773.91 967.63 773.91S1008.09 776.6 1043.88 776.6S1084.04 759.32 1120.14 759.32S1160.58 766.94 1196.4 766.94S1236.7 773.74 1272.66 773.74S1311.53 775.49 1348.92 775.49S1388.26 768.72 1425.18 768.72S1464.4 788.6 1501.44 788.6S1542.77 762.96 1577.7 762.96S1617.16 776.52 1653.96 776.52S1694.39 750.73 1730.22 750.73S1770.89 768.79 1806.47 768.79S1844.97 782.48 1882.73 782.48S1922.88 770.66 1958.99 770.66S1997.56 773.34 2035.25 773.34L2020 976 L-100 976 Z;M-100 776.95C-61.45 791.04 -61.32 775.73 -23.74 775.73S15.99 762.93 52.52 762.93S91.53 771.94 128.78 771.94S167.69 762.83 205.04 762.83S243.32 784.51 281.29 784.51S320.44 758.6 357.55 758.6S395.84 773.18 433.81 773.18S472.95 773.88 510.07 773.88S548.9 763.26 586.33 763.26S626.55 764.76 662.59 764.76S703.4 765.12 738.85 765.12S780.09 753.58 815.11 753.58S855.8 780.41 891.37 780.41S931.9 754.13 967.63 754.13S1007.62 770.86 1043.88 770.86S1083.34 774.85 1120.14 774.85S1159.37 769.95 1196.4 769.95S1234.57 769.33 1272.66 769.33S1312.93 789.19 1348.92 789.19S1387.97 757.61 1425.18 757.61S1463.48 768.41 1501.44 768.41S1542.12 760.92 1577.7 760.92S1616.71 780.36 1653.96 780.36S1692.59 752.91 1730.22 752.91S1768.36 762.39 1806.47 762.39S1846.41 757.95 1882.73 757.95S1923.55 775.54 1958.99 775.54S1999.81 773.82 2035.25 773.82L2020 976 L-100 976 Z;M-100 753.53C-58.92 748.43 -60.94 782.41 -23.74 782.41S15.38 765.19 52.52 765.19S92.93 796.05 128.78 796.05S168.06 750.04 205.04 750.04S243.31 796.63 281.29 796.63S319.71 757.34 357.55 757.34S396.08 781.99 433.81 781.99S474.21 751.94 510.07 751.94S548.75 761.54 586.33 761.54S626.59 796.62 662.59 796.62S703.67 791.29 738.85 791.29S777.93 758.69 815.11 758.69S854.28 756.21 891.37 756.21S930.81 773.91 967.63 773.91S1008.09 776.6 1043.88 776.6S1084.04 759.32 1120.14 759.32S1160.58 766.94 1196.4 766.94S1236.7 773.74 1272.66 773.74S1311.53 775.49 1348.92 775.49S1388.26 768.72 1425.18 768.72S1464.4 788.6 1501.44 788.6S1542.77 762.96 1577.7 762.96S1617.16 776.52 1653.96 776.52S1694.39 750.73 1730.22 750.73S1770.89 768.79 1806.47 768.79S1844.97 782.48 1882.73 782.48S1922.88 770.66 1958.99 770.66S1997.56 773.34 2035.25 773.34L2020 976 L-100 976 Z"></animate>
  <animateTransform attributeName="transform" type="translate" dur="13.333333333333332s" begin="-5.333333333333333s" repeatCount="indefinite" values="0;10;0" calcMode="spline" keySplines="0.3 0 0.7 1;0.3 0 0.7 1"></animateTransform>
</path><path d="M-100 785.1C-59.19 767.08 -58.39 811.03 -21.48 811.03S19.42 772.83 57.04 772.83S99.23 805.99 135.56 805.99S177.9 766.53 214.07 766.53S254.85 800.56 292.59 800.56S333.93 794.27 371.11 794.27S412.5 811.44 449.63 811.44S492.08 791.35 528.15 791.35S568.17 774.73 606.67 774.73S647.37 792.9 685.19 792.9S726.21 794.98 763.7 794.98S806.14 767.89 842.22 767.89S881.61 774.13 920.74 774.13S963.1 790.24 999.26 790.24S1041.37 795.63 1077.78 795.63S1118.57 767.62 1156.3 767.62S1198.56 788.96 1234.81 788.96S1275.23 776.23 1313.33 776.23S1354.23 794.55 1391.85 794.55S1434.28 785.06 1470.37 785.06S1510.65 795.69 1548.89 795.69S1590.25 812.37 1627.41 812.37S1668.43 800.41 1705.93 800.41S1746.52 813.8 1784.44 813.8S1825.61 788.31 1862.96 788.31S1903.51 792.32 1941.48 792.32S1982.3 789.47 2020 789.47S2061.85 792.99 2098.52 792.99L2020 976 L-100 976 Z" fill="#7e9193" stroke-width="0">
  <animate attributeName="d" dur="11.11111111111111s" repeatCount="indefinite" values="M-100 785.1C-59.19 767.08 -58.39 811.03 -21.48 811.03S19.42 772.83 57.04 772.83S99.23 805.99 135.56 805.99S177.9 766.53 214.07 766.53S254.85 800.56 292.59 800.56S333.93 794.27 371.11 794.27S412.5 811.44 449.63 811.44S492.08 791.35 528.15 791.35S568.17 774.73 606.67 774.73S647.37 792.9 685.19 792.9S726.21 794.98 763.7 794.98S806.14 767.89 842.22 767.89S881.61 774.13 920.74 774.13S963.1 790.24 999.26 790.24S1041.37 795.63 1077.78 795.63S1118.57 767.62 1156.3 767.62S1198.56 788.96 1234.81 788.96S1275.23 776.23 1313.33 776.23S1354.23 794.55 1391.85 794.55S1434.28 785.06 1470.37 785.06S1510.65 795.69 1548.89 795.69S1590.25 812.37 1627.41 812.37S1668.43 800.41 1705.93 800.41S1746.52 813.8 1784.44 813.8S1825.61 788.31 1862.96 788.31S1903.51 792.32 1941.48 792.32S1982.3 789.47 2020 789.47S2061.85 792.99 2098.52 792.99L2020 976 L-100 976 Z;M-100 813.75C-60.34 787.71 -60.51 810.57 -21.48 810.57S19.71 774.64 57.04 774.64S99.45 810.17 135.56 810.17S176.06 798.12 214.07 798.12S256.53 819.22 292.59 819.22S333.13 796.46 371.11 796.46S413.08 806.52 449.63 806.52S490.25 777.37 528.15 777.37S568.28 773.34 606.67 773.34S647.4 788.89 685.19 788.89S726.93 789.29 763.7 789.29S803.08 787.1 842.22 787.1S884.27 799.38 920.74 799.38S962.81 792.98 999.26 792.98S1040.95 811.88 1077.78 811.88S1117.64 792.89 1156.3 792.89S1197.11 774.17 1234.81 774.17S1274.62 767.99 1313.33 767.99S1353.15 814.93 1391.85 814.93S1433.95 776.42 1470.37 776.42S1512.47 800.69 1548.89 800.69S1589.49 795.68 1627.41 795.68S1667.67 809.77 1705.93 809.77S1747.21 784.63 1784.44 784.63S1823.75 801.42 1862.96 801.42S1902.46 769.38 1941.48 769.38S1983.87 815.04 2020 815.04S2061.94 814.26 2098.52 814.26L2020 976 L-100 976 Z;M-100 785.1C-59.19 767.08 -58.39 811.03 -21.48 811.03S19.42 772.83 57.04 772.83S99.23 805.99 135.56 805.99S177.9 766.53 214.07 766.53S254.85 800.56 292.59 800.56S333.93 794.27 371.11 794.27S412.5 811.44 449.63 811.44S492.08 791.35 528.15 791.35S568.17 774.73 606.67 774.73S647.37 792.9 685.19 792.9S726.21 794.98 763.7 794.98S806.14 767.89 842.22 767.89S881.61 774.13 920.74 774.13S963.1 790.24 999.26 790.24S1041.37 795.63 1077.78 795.63S1118.57 767.62 1156.3 767.62S1198.56 788.96 1234.81 788.96S1275.23 776.23 1313.33 776.23S1354.23 794.55 1391.85 794.55S1434.28 785.06 1470.37 785.06S1510.65 795.69 1548.89 795.69S1590.25 812.37 1627.41 812.37S1668.43 800.41 1705.93 800.41S1746.52 813.8 1784.44 813.8S1825.61 788.31 1862.96 788.31S1903.51 792.32 1941.48 792.32S1982.3 789.47 2020 789.47S2061.85 792.99 2098.52 792.99L2020 976 L-100 976 Z"></animate>
  <animateTransform attributeName="transform" type="translate" dur="11.11111111111111s" begin="-5.555555555555555s" repeatCount="indefinite" values="0;10;0" calcMode="spline" keySplines="0.3 0 0.7 1;0.3 0 0.7 1"></animateTransform>
</path><path d="M-100 785.81C-57.94 808.7 -59.08 842.09 -19.08 842.09S21.96 810.66 61.83 810.66S102.39 812.28 142.75 812.28S184.36 794.29 223.66 794.29S266.46 836.93 304.58 836.93S347.66 798.96 385.5 798.96S426.81 832.17 466.41 832.17S508.4 815.52 547.33 815.52S589.67 816.13 628.24 816.13S671.55 795.07 709.16 795.07S752.61 840.19 790.08 840.19S830.58 794.8 870.99 794.8S913.41 792.73 951.91 792.73S993.18 790.32 1032.82 790.32S1076.5 832.55 1113.74 832.55S1154.64 804.83 1194.66 804.83S1237.27 837.71 1275.57 837.71S1317.39 832.46 1356.49 832.46S1397.44 834.38 1437.4 834.38S1479.06 786.83 1518.32 786.83S1560.1 810.87 1599.24 810.87S1642.84 812.35 1680.15 812.35S1720.76 831.7 1761.07 831.7S1802.73 809.47 1841.98 809.47S1883.31 829.78 1922.9 829.78S1965.6 796.87 2003.82 796.87S2045.49 812.85 2084.73 812.85L2020 976 L-100 976 Z" fill="#95a6a7" stroke-width="0">
  <animate attributeName="d" dur="8.88888888888889s" repeatCount="indefinite" values="M-100 785.81C-57.94 808.7 -59.08 842.09 -19.08 842.09S21.96 810.66 61.83 810.66S102.39 812.28 142.75 812.28S184.36 794.29 223.66 794.29S266.46 836.93 304.58 836.93S347.66 798.96 385.5 798.96S426.81 832.17 466.41 832.17S508.4 815.52 547.33 815.52S589.67 816.13 628.24 816.13S671.55 795.07 709.16 795.07S752.61 840.19 790.08 840.19S830.58 794.8 870.99 794.8S913.41 792.73 951.91 792.73S993.18 790.32 1032.82 790.32S1076.5 832.55 1113.74 832.55S1154.64 804.83 1194.66 804.83S1237.27 837.71 1275.57 837.71S1317.39 832.46 1356.49 832.46S1397.44 834.38 1437.4 834.38S1479.06 786.83 1518.32 786.83S1560.1 810.87 1599.24 810.87S1642.84 812.35 1680.15 812.35S1720.76 831.7 1761.07 831.7S1802.73 809.47 1841.98 809.47S1883.31 829.78 1922.9 829.78S1965.6 796.87 2003.82 796.87S2045.49 812.85 2084.73 812.85L2020 976 L-100 976 Z;M-100 805.61C-58.42 784.85 -58.39 826.41 -19.08 826.41S23.78 799.63 61.83 799.63S103.7 818.75 142.75 818.75S183.44 807.8 223.66 807.8S265.91 810.74 304.58 810.74S345.21 819.59 385.5 819.59S428.97 829.23 466.41 829.23S508.33 799.15 547.33 799.15S590.86 821.76 628.24 821.76S669.76 834.86 709.16 834.86S752.41 828.08 790.08 828.08S832.98 810.12 870.99 810.12S913.83 818.16 951.91 818.16S992.46 797.83 1032.82 797.83S1075.18 828.35 1113.74 828.35S1157.3 798.2 1194.66 798.2S1237.75 820.35 1275.57 820.35S1317.19 836.38 1356.49 836.38S1399.33 824.95 1437.4 824.95S1481.01 804.3 1518.32 804.3S1558.95 813.75 1599.24 813.75S1642.7 815.14 1680.15 815.14S1723.49 840.38 1761.07 840.38S1802.38 841.22 1841.98 841.22S1883.94 813.61 1922.9 813.61S1963.69 824 2003.82 824S2045.61 813.57 2084.73 813.57L2020 976 L-100 976 Z;M-100 785.81C-57.94 808.7 -59.08 842.09 -19.08 842.09S21.96 810.66 61.83 810.66S102.39 812.28 142.75 812.28S184.36 794.29 223.66 794.29S266.46 836.93 304.58 836.93S347.66 798.96 385.5 798.96S426.81 832.17 466.41 832.17S508.4 815.52 547.33 815.52S589.67 816.13 628.24 816.13S671.55 795.07 709.16 795.07S752.61 840.19 790.08 840.19S830.58 794.8 870.99 794.8S913.41 792.73 951.91 792.73S993.18 790.32 1032.82 790.32S1076.5 832.55 1113.74 832.55S1154.64 804.83 1194.66 804.83S1237.27 837.71 1275.57 837.71S1317.39 832.46 1356.49 832.46S1397.44 834.38 1437.4 834.38S1479.06 786.83 1518.32 786.83S1560.1 810.87 1599.24 810.87S1642.84 812.35 1680.15 812.35S1720.76 831.7 1761.07 831.7S1802.73 809.47 1841.98 809.47S1883.31 829.78 1922.9 829.78S1965.6 796.87 2003.82 796.87S2045.49 812.85 2084.73 812.85L2020 976 L-100 976 Z"></animate>
  <animateTransform attributeName="transform" type="translate" dur="8.88888888888889s" begin="-5.333333333333334s" repeatCount="indefinite" values="0;10;0" calcMode="spline" keySplines="0.3 0 0.7 1;0.3 0 0.7 1"></animateTransform>
</path><path d="M-100 852.36C-57.92 854.71 -57.89 803.86 -16.54 803.86S25.64 811.63 66.93 811.63S108.7 853.1 150.39 853.1S194.7 805.46 233.86 805.46S276.35 847.23 317.32 847.23S361.71 823.95 400.79 823.95S442.54 840.54 484.25 840.54S526.03 833.6 567.72 833.6S609.87 820.67 651.18 820.67S696.07 833.08 734.65 833.08S778.18 815.6 818.11 815.6S861.92 824.24 901.57 824.24S944.96 845.85 985.04 845.85S1028.4 822.95 1068.5 822.95S1112.52 848.75 1151.97 848.75S1193.86 810.59 1235.43 810.59S1278.51 806.73 1318.9 806.73S1362.82 811.32 1402.36 811.32S1446.96 848.14 1485.83 848.14S1528.05 833.79 1569.29 833.79S1612.24 835.49 1652.76 835.49S1697.11 833.13 1736.22 833.13S1778.46 834.48 1819.69 834.48S1864 840.24 1903.15 840.24S1945.79 815.16 1986.61 815.16S2028.51 828.91 2070.08 828.91L2020 976 L-100 976 Z" fill="#adbcbc" stroke-width="0">
  <animate attributeName="d" dur="6.666666666666666s" repeatCount="indefinite" values="M-100 852.36C-57.92 854.71 -57.89 803.86 -16.54 803.86S25.64 811.63 66.93 811.63S108.7 853.1 150.39 853.1S194.7 805.46 233.86 805.46S276.35 847.23 317.32 847.23S361.71 823.95 400.79 823.95S442.54 840.54 484.25 840.54S526.03 833.6 567.72 833.6S609.87 820.67 651.18 820.67S696.07 833.08 734.65 833.08S778.18 815.6 818.11 815.6S861.92 824.24 901.57 824.24S944.96 845.85 985.04 845.85S1028.4 822.95 1068.5 822.95S1112.52 848.75 1151.97 848.75S1193.86 810.59 1235.43 810.59S1278.51 806.73 1318.9 806.73S1362.82 811.32 1402.36 811.32S1446.96 848.14 1485.83 848.14S1528.05 833.79 1569.29 833.79S1612.24 835.49 1652.76 835.49S1697.11 833.13 1736.22 833.13S1778.46 834.48 1819.69 834.48S1864 840.24 1903.15 840.24S1945.79 815.16 1986.61 815.16S2028.51 828.91 2070.08 828.91L2020 976 L-100 976 Z;M-100 818.89C-57.26 811.6 -58.09 829.38 -16.54 829.38S27.23 828.59 66.93 828.59S109.44 859.61 150.39 859.61S194.7 832.21 233.86 832.21S278.46 846.55 317.32 846.55S362.14 812.84 400.79 812.84S445.2 863.04 484.25 863.04S527.55 803.75 567.72 803.75S610.91 857.99 651.18 857.99S694.05 813.74 734.65 813.74S778.34 834.97 818.11 834.97S859.89 816.63 901.57 816.63S944.39 859.51 985.04 859.51S1029.07 809.78 1068.5 809.78S1113.11 842.55 1151.97 842.55S1196.46 811.71 1235.43 811.71S1278.29 853.84 1318.9 853.84S1360.84 812.72 1402.36 812.72S1445.81 819.68 1485.83 819.68S1528.56 809.53 1569.29 809.53S1612.73 849.46 1652.76 849.46S1697.34 815.28 1736.22 815.28S1779.28 845.75 1819.69 845.75S1863.36 848.27 1903.15 848.27S1946.71 865 1986.61 865S2029.26 807.1 2070.08 807.1L2020 976 L-100 976 Z;M-100 852.36C-57.92 854.71 -57.89 803.86 -16.54 803.86S25.64 811.63 66.93 811.63S108.7 853.1 150.39 853.1S194.7 805.46 233.86 805.46S276.35 847.23 317.32 847.23S361.71 823.95 400.79 823.95S442.54 840.54 484.25 840.54S526.03 833.6 567.72 833.6S609.87 820.67 651.18 820.67S696.07 833.08 734.65 833.08S778.18 815.6 818.11 815.6S861.92 824.24 901.57 824.24S944.96 845.85 985.04 845.85S1028.4 822.95 1068.5 822.95S1112.52 848.75 1151.97 848.75S1193.86 810.59 1235.43 810.59S1278.51 806.73 1318.9 806.73S1362.82 811.32 1402.36 811.32S1446.96 848.14 1485.83 848.14S1528.05 833.79 1569.29 833.79S1612.24 835.49 1652.76 835.49S1697.11 833.13 1736.22 833.13S1778.46 834.48 1819.69 834.48S1864 840.24 1903.15 840.24S1945.79 815.16 1986.61 815.16S2028.51 828.91 2070.08 828.91L2020 976 L-100 976 Z"></animate>
  <animateTransform attributeName="transform" type="translate" dur="6.666666666666666s" begin="-4.666666666666666s" repeatCount="indefinite" values="0;10;0" calcMode="spline" keySplines="0.3 0 0.7 1;0.3 0 0.7 1"></animateTransform>
</path><path d="M-100 843.97C-55.62 826.85 -56.38 879.02 -13.82 879.02S29.7 822.8 72.36 822.8S117.6 865.07 158.54 865.07S203.97 823.25 244.72 823.25S288.53 866.92 330.89 866.92S375.26 832.15 417.07 832.15S461.79 860.59 503.25 860.59S548.46 859.41 589.43 859.41S633.33 888.19 675.61 888.19S720.22 833.67 761.79 833.67S806.65 865.66 847.97 865.66S892.42 868.72 934.15 868.72S979.15 877.53 1020.33 877.53S1063.55 851.61 1106.5 851.61S1152.22 874.5 1192.68 874.5S1236.93 841.41 1278.86 841.41S1325.05 873.11 1365.04 873.11S1410.12 832.39 1451.22 832.39S1495.51 859.01 1537.4 859.01S1580.88 845.58 1623.58 845.58S1669.77 829.59 1709.76 829.59S1756.03 856.35 1795.93 856.35S1840.57 887.47 1882.11 887.47S1927.72 829.85 1968.29 829.85S2011.4 850.26 2054.47 850.26L2020 976 L-100 976 Z" fill="#c6d2d2" stroke-width="0">
  <animate attributeName="d" dur="4.444444444444445s" repeatCount="indefinite" values="M-100 843.97C-55.62 826.85 -56.38 879.02 -13.82 879.02S29.7 822.8 72.36 822.8S117.6 865.07 158.54 865.07S203.97 823.25 244.72 823.25S288.53 866.92 330.89 866.92S375.26 832.15 417.07 832.15S461.79 860.59 503.25 860.59S548.46 859.41 589.43 859.41S633.33 888.19 675.61 888.19S720.22 833.67 761.79 833.67S806.65 865.66 847.97 865.66S892.42 868.72 934.15 868.72S979.15 877.53 1020.33 877.53S1063.55 851.61 1106.5 851.61S1152.22 874.5 1192.68 874.5S1236.93 841.41 1278.86 841.41S1325.05 873.11 1365.04 873.11S1410.12 832.39 1451.22 832.39S1495.51 859.01 1537.4 859.01S1580.88 845.58 1623.58 845.58S1669.77 829.59 1709.76 829.59S1756.03 856.35 1795.93 856.35S1840.57 887.47 1882.11 887.47S1927.72 829.85 1968.29 829.85S2011.4 850.26 2054.47 850.26L2020 976 L-100 976 Z;M-100 838.46C-55.67 850.47 -55.29 867.1 -13.82 867.1S29.28 826.18 72.36 826.18S117.67 879.88 158.54 879.88S202.29 851.04 244.72 851.04S290.84 858.2 330.89 858.2S377.15 822.3 417.07 822.3S460.28 869.56 503.25 869.56S547.12 838.57 589.43 838.57S633.21 857.75 675.61 857.75S720.24 841.97 761.79 841.97S805.36 887.83 847.97 887.83S892.62 828.02 934.15 828.02S979.51 882.46 1020.33 882.46S1065.03 849.28 1106.5 849.28S1150.28 874.24 1192.68 874.24S1236.24 888.14 1278.86 888.14S1323.41 880.18 1365.04 880.18S1409.94 843.56 1451.22 843.56S1494.49 886.15 1537.4 886.15S1580.8 850.05 1623.58 850.05S1667.03 838.2 1709.76 838.2S1755.25 825.77 1795.93 825.77S1840.9 875.03 1882.11 875.03S1925.76 841.9 1968.29 841.9S2012.65 839.72 2054.47 839.72L2020 976 L-100 976 Z;M-100 843.97C-55.62 826.85 -56.38 879.02 -13.82 879.02S29.7 822.8 72.36 822.8S117.6 865.07 158.54 865.07S203.97 823.25 244.72 823.25S288.53 866.92 330.89 866.92S375.26 832.15 417.07 832.15S461.79 860.59 503.25 860.59S548.46 859.41 589.43 859.41S633.33 888.19 675.61 888.19S720.22 833.67 761.79 833.67S806.65 865.66 847.97 865.66S892.42 868.72 934.15 868.72S979.15 877.53 1020.33 877.53S1063.55 851.61 1106.5 851.61S1152.22 874.5 1192.68 874.5S1236.93 841.41 1278.86 841.41S1325.05 873.11 1365.04 873.11S1410.12 832.39 1451.22 832.39S1495.51 859.01 1537.4 859.01S1580.88 845.58 1623.58 845.58S1669.77 829.59 1709.76 829.59S1756.03 856.35 1795.93 856.35S1840.57 887.47 1882.11 887.47S1927.72 829.85 1968.29 829.85S2011.4 850.26 2054.47 850.26L2020 976 L-100 976 Z"></animate>
  <animateTransform attributeName="transform" type="translate" dur="4.444444444444445s" begin="-3.555555555555556s" repeatCount="indefinite" values="0;10;0" calcMode="spline" keySplines="0.3 0 0.7 1;0.3 0 0.7 1"></animateTransform>
</path><path d="M-100 901.68C-55.11 906.26 -52.71 902.51 -10.92 902.51S35.47 894.02 78.15 894.02S124.78 890.72 167.23 890.72S214.08 858.97 256.3 858.97S303.87 888.4 345.38 888.4S391.58 859.57 434.45 859.57S481.25 887.24 523.53 887.24S570.32 908.81 612.61 908.81S659.47 907.99 701.68 907.99S747.8 849.97 790.76 849.97S835.51 900.49 879.83 900.49S925.92 855.67 968.91 855.67S1014.88 896.16 1057.98 896.16S1105.74 844.76 1147.06 844.76S1191.96 870.09 1236.13 870.09S1282.34 853.5 1325.21 853.5S1372.75 889.61 1414.29 889.61S1459.63 851.28 1503.36 851.28S1550.83 908.38 1592.44 908.38S1637.57 857.03 1681.51 857.03S1726.86 899.25 1770.59 899.25S1817.68 871.24 1859.66 871.24S1906.2 910.84 1948.74 910.84S1993.8 864.41 2037.82 864.41L2020 976 L-100 976 Z" fill="#dfe8e8" stroke-width="0">
  <animate attributeName="d" dur="2.2222222222222223s" repeatCount="indefinite" values="M-100 901.68C-55.11 906.26 -52.71 902.51 -10.92 902.51S35.47 894.02 78.15 894.02S124.78 890.72 167.23 890.72S214.08 858.97 256.3 858.97S303.87 888.4 345.38 888.4S391.58 859.57 434.45 859.57S481.25 887.24 523.53 887.24S570.32 908.81 612.61 908.81S659.47 907.99 701.68 907.99S747.8 849.97 790.76 849.97S835.51 900.49 879.83 900.49S925.92 855.67 968.91 855.67S1014.88 896.16 1057.98 896.16S1105.74 844.76 1147.06 844.76S1191.96 870.09 1236.13 870.09S1282.34 853.5 1325.21 853.5S1372.75 889.61 1414.29 889.61S1459.63 851.28 1503.36 851.28S1550.83 908.38 1592.44 908.38S1637.57 857.03 1681.51 857.03S1726.86 899.25 1770.59 899.25S1817.68 871.24 1859.66 871.24S1906.2 910.84 1948.74 910.84S1993.8 864.41 2037.82 864.41L2020 976 L-100 976 Z;M-100 858.11C-53.5 841.24 -54.96 867.11 -10.92 867.11S36 891.5 78.15 891.5S123.32 882.56 167.23 882.56S213.03 841 256.3 841S301.76 905.71 345.38 905.71S392.06 842.59 434.45 842.59S481.27 885.79 523.53 885.79S569.75 862.09 612.61 862.09S657.29 904.92 701.68 904.92S749.14 881.41 790.76 881.41S837.76 911.06 879.83 911.06S927.42 840.96 968.91 840.96S1016.66 897.55 1057.98 897.55S1105.19 868.33 1147.06 868.33S1192.6 905.44 1236.13 905.44S1283.29 871.85 1325.21 871.85S1371.09 890.77 1414.29 890.77S1461.24 868.31 1503.36 868.31S1551.04 851.43 1592.44 851.43S1637.16 841.04 1681.51 841.04S1728.68 886.11 1770.59 886.11S1815.14 846.6 1859.66 846.6S1906.53 909.85 1948.74 909.85S1994.52 856.32 2037.82 856.32L2020 976 L-100 976 Z;M-100 901.68C-55.11 906.26 -52.71 902.51 -10.92 902.51S35.47 894.02 78.15 894.02S124.78 890.72 167.23 890.72S214.08 858.97 256.3 858.97S303.87 888.4 345.38 888.4S391.58 859.57 434.45 859.57S481.25 887.24 523.53 887.24S570.32 908.81 612.61 908.81S659.47 907.99 701.68 907.99S747.8 849.97 790.76 849.97S835.51 900.49 879.83 900.49S925.92 855.67 968.91 855.67S1014.88 896.16 1057.98 896.16S1105.74 844.76 1147.06 844.76S1191.96 870.09 1236.13 870.09S1282.34 853.5 1325.21 853.5S1372.75 889.61 1414.29 889.61S1459.63 851.28 1503.36 851.28S1550.83 908.38 1592.44 908.38S1637.57 857.03 1681.51 857.03S1726.86 899.25 1770.59 899.25S1817.68 871.24 1859.66 871.24S1906.2 910.84 1948.74 910.84S1993.8 864.41 2037.82 864.41L2020 976 L-100 976 Z"></animate>
  <animateTransform attributeName="transform" type="translate" dur="2.2222222222222223s" begin="-2s" repeatCount="indefinite" values="0;10;0" calcMode="spline" keySplines="0.3 0 0.7 1;0.3 0 0.7 1"></animateTransform>
</path></g>
</svg>