<?xml version="1.0" encoding="iso-8859-1"?>
<!-- Generator: Adobe Illustrator 19.0.0, SVG Export Plug-In . SVG Version: 6.00 Build 0)  -->
<svg version="1.1" id="Layer_1" xmlns="http://www.w3.org/2000/svg" xmlns:xlink="http://www.w3.org/1999/xlink" x="0px" y="0px"
	 viewBox="0 0 512 512" style="enable-background:new 0 0 512 512;" xml:space="preserve">
<g>
	<g>
		<path d="M419.073,475.352c-30.361,0-55.064-24.693-55.064-55.054v-241.88c0-46.627-17.827-90.719-50.198-124.181
			C283.546,22.967,243.571,4.06,200.463,0.456c-2.449-0.331-9.635-0.492-10.117-0.449c-11.977,0.588-23.303,5.058-32.382,12.737
			C122.77,14.679,92.827,38.121,82.678,72.16c-1.069,3.604-0.182,7.507,2.353,10.277c2.535,2.77,6.342,4.01,10.02,3.262
			c6.01-1.219,12.223-1.839,18.458-1.839c14.908,0,29.805,3.593,43.108,10.395l0.011-0.011c0.342,0.193,9.914,6.235,11.207,7.571
			c0.032,0.032,0.064,0.053,0.086,0.086c0.032,0.032,0.053,0.064,0.086,0.096c11.015,11.015,17.079,25.634,17.079,41.183
			c0,15.549-6.064,30.179-17.079,41.183C132.17,220.2,112.44,267.81,112.44,318.425c0,50.605,19.731,98.215,55.556,134.051
			c0,0,0,0.011,0.011,0.011c0.866,0.866,1.765,1.711,2.663,2.534c-12.149,2.363-21.356,13.09-21.356,25.912v4.673
			c0,14.555,11.849,26.393,26.404,26.393h108.31c22.115,0,40.681-15.421,45.525-36.071h17.891
			c17.667,11.218,38.125,18.426,60.08,20.308l0.043-0.364c3.754,0.567,7.593,0.866,11.507,0.866c5.903,0,10.694-4.791,10.694-10.694
			C429.767,480.142,424.976,475.352,419.073,475.352z M139.742,65.519c-9.625-2.235-19.528-3.272-29.388-3.005
			c7.293-11.443,18.116-20.105,30.799-24.736c-1.679,5.294-2.567,10.865-2.567,16.587C138.587,58.151,138.983,61.883,139.742,65.519
			z M284.027,490.612h-108.31c-2.759,0-5.016-2.246-5.016-5.005v-4.673c0-2.759,2.256-5.005,5.016-5.005h131.335
			C303.01,484.591,294.208,490.612,284.027,490.612z M224.29,454.541c-15.539-0.075-30.147-6.171-41.151-17.175
			c-0.011-0.011-0.021-0.021-0.032-0.032c-31.783-31.794-49.279-74.014-49.279-118.908s17.506-87.136,49.311-118.94
			c15.047-15.047,23.335-35.045,23.335-56.305c0-21.153-8.213-41.055-23.121-56.08c-0.021-0.011-0.032-0.032-0.043-0.053
			c-0.738-0.759-6.93-7.09-15.314-11.101c-5.176-5.989-8.021-13.582-8.021-21.581c0-8.887,3.476-17.218,9.807-23.474
			c5.871-5.839,13.656-9.218,21.944-9.539c2.299,0.096,4.599,0.225,6.876,0.417c0.053,0.011,0.107,0.011,0.16,0.011
			c37.911,3.187,73.063,19.827,99.68,47.332c28.489,29.441,44.178,68.261,44.178,109.305V370.1
			c-43.45-5.283-77.233-42.413-77.233-87.275V176.311c0-5.914-4.791-10.694-10.694-10.694c-5.903,0-10.694,4.78-10.694,10.694
			v106.514c0,34.542,16.116,65.395,41.215,85.446c1.358,33.312,14.929,63.523,36.349,86.27H224.29z M308.207,382.398
			c10.673,4.844,22.255,8.031,34.414,9.218v28.682c0,10.855,2.289,21.174,6.384,30.532
			C327.98,434.061,313.073,409.935,308.207,382.398z"/>
	</g>
</g>
<g>
	<g>
		<circle cx="194.816" cy="45.14" r="10.694"/>
	</g>
</g>
<g>
	<g>
		<path d="M200.41,378.249c-2.41-4.098-4.59-8.383-6.48-12.739c-11.431-26.347-12.875-55.951-4.067-83.36
			c1.806-5.623-1.286-11.647-6.909-13.453c-5.628-1.809-11.647,1.287-13.453,6.91c-10.397,32.353-8.689,67.305,4.808,98.415
			c2.235,5.152,4.813,10.224,7.663,15.07c1.995,3.388,5.562,5.274,9.229,5.274c1.842,0,3.709-0.477,5.411-1.478
			C201.704,389.893,203.404,383.339,200.41,378.249z"/>
	</g>
</g>
<g>
</g>
<g>
</g>
<g>
</g>
<g>
</g>
<g>
</g>
<g>
</g>
<g>
</g>
<g>
</g>
<g>
</g>
<g>
</g>
<g>
</g>
<g>
</g>
<g>
</g>
<g>
</g>
<g>
</g>
</svg>
