<svg xml:space="preserve" viewBox="0 0 100 100" y="0" x="0" xmlns="http://www.w3.org/2000/svg" id="Layer_1" version="1.1" style="height:100%;width:100%;background:0 0;shape-rendering:auto" width="200" height="200"><g class="ldl-scale" style="transform-origin:50% 50%;transform:rotate(0deg) scale(.8,.8)"><g class="ldl-ani" style="transform-origin:50px 50px;transform:translate(0,0) rotate(0deg) scale(1,1) skewX(0deg) skewY(0deg);opacity:1;animation:1.11111s linear 0s infinite normal forwards running move-fade-ltr-5db5f715-4a16-4acb-b03a-e0d24deea1a5"><g class="ldl-layer"><g class="ldl-ani" style="transform-origin:50px 50px"><path fill="#323232" d="M78.933 50.066c0 .499-.2.998-.601 1.365l-25.24 31.21v5.568c0 1.612 1.916 2.455 3.104 1.365L88.999 51.43c.4-.367.601-.866.601-1.365s-.2-.998-.601-1.365L56.197 10.556c-1.188-1.089-3.104-.247-3.104 1.365v5.568l25.24 31.21c.4.368.6.868.6 1.367z" id="XMLID_729_" style="fill:#a3a3a3"/></g></g><g class="ldl-layer"><g class="ldl-ani" style="transform-origin:50px 50px"><path fill="#999998" d="M57.6 50.066c0 .499-.2.998-.601 1.365l-25.24 31.21v5.568c0 1.612 1.916 2.455 3.104 1.365L67.666 51.43c.4-.367.601-.866.601-1.365s-.2-.998-.601-1.365L34.864 10.556c-1.188-1.089-3.104-.247-3.104 1.365v5.568L57 48.699c.4.368.6.868.6 1.367z" id="XMLID_728_" style="fill:#c9c9c9"/></g></g><g class="ldl-layer"><g class="ldl-ani" style="transform-origin:50px 50px"><path fill="#cccccb" d="M36.241 50.066c0 .499-.2.998-.601 1.365L10.4 82.641v5.568c0 1.612 1.916 2.455 3.104 1.365L46.307 51.43c.4-.367.601-.866.601-1.365s-.2-.998-.601-1.365L13.504 10.556c-1.188-1.089-3.104-.246-3.104 1.366v5.568L35.64 48.7c.401.367.601.867.601 1.366z" id="XMLID_727_" style="fill:#ededed"/></g></g></g></g><style id="move-fade-ltr-5db5f715-4a16-4acb-b03a-e0d24deea1a5">@keyframes move-fade-ltr-5db5f715-4a16-4acb-b03a-e0d24deea1a5{0%,to{transform:translate(0,0) rotate(0deg) scale(1,1) skewX(0deg) skewY(0deg);opacity:1}40%{transform:translate(40px,0) rotate(0deg) scale(1,1) skewX(0deg) skewY(0deg);opacity:1}49.99999%{transform:translate(49.99999px,0) rotate(0deg) scale(1,1) skewX(0deg) skewY(0deg);opacity:0}50%{transform:translate(-50px,0) rotate(0deg) scale(1,1) skewX(0deg) skewY(0deg);opacity:0}50.00001%{transform:translate(-49.99999px,0) rotate(0deg) scale(1,1) skewX(0deg) skewY(0deg);opacity:0}60%{transform:translate(-40px,0) rotate(0deg) scale(1,1) skewX(0deg) skewY(0deg);opacity:1}}</style></svg>