<?xml version="1.0" encoding="utf-8"?>
<svg xmlns="http://www.w3.org/2000/svg" xmlns:xlink="http://www.w3.org/1999/xlink" style="margin: auto; background: rgb(255, 255, 255); display: block; z-index: 1; position: relative; shape-rendering: auto;" width="1976" height="697" preserveAspectRatio="xMidYMid" viewBox="0 0 1976 697">
<g transform="translate(988,348.5) scale(-1,1) translate(-988,-348.5)"><g transform="translate(1378.336576113591,45.72391549542965) scale(100)" opacity="0.4">
  <path d="M4.94 0 C4.94 1.1362 4.846265494695128 1.4860219362201204 4.278165494695128 2.4699999999999998 S3.45397806377988 3.710065494695127 2.4700000000000006 4.278165494695127 S1.1362000000000003 4.94 3.024877593893963e-16 4.94 S-1.48602193622012 4.846265494695128 -2.4699999999999993 4.278165494695128 S-3.710065494695126 3.453978063779881 -4.278165494695126 2.470000000000002 S-4.94 1.1362000000000008 -4.94 6.049755187787926e-16 S-4.846265494695127 -1.4860219362201192 -4.278165494695128 -2.469999999999999 S-3.4539780637798816 -3.7100654946951255 -2.4700000000000024 -4.278165494695126 S-1.136200000000001 -4.94 -9.074632781681888e-16 -4.94 S1.4860219362201175 -4.846265494695128 2.469999999999997 -4.278165494695129 S3.7100654946951255 -3.453978063779881 4.278165494695126 -2.4700000000000024 S4.94 -1.1362000000000012 4.94 -1.2099510375575851e-15" fill="#007fc0" stroke-width="0">
    <animateTransform attributeName="transform" type="rotate" dur="50s" repeatCount="indefinite" values="0;60"></animateTransform>
  </path>
</g><g transform="translate(1456.4038913363092,-14.83130140548434) scale(100)" opacity="0.4">
  <path d="M5.928 0 C5.928 1.36344 5.8155185936341525 1.7832263234641443 5.133798593634153 2.9639999999999995 S4.144773676535856 4.452078593634152 2.9640000000000004 5.133798593634152 S1.3634400000000004 5.928 3.629853112672755e-16 5.928 S-1.7832263234641434 5.8155185936341525 -2.9639999999999986 5.133798593634153 S-4.452078593634151 4.1447736765358565 -5.133798593634151 2.9640000000000017 S-5.928 1.3634400000000007 -5.928 7.25970622534551e-16 S-5.8155185936341525 -1.783226323464143 -5.133798593634153 -2.963999999999998 S-4.144773676535857 -4.452078593634151 -2.9640000000000026 -5.133798593634151 S-1.363440000000001 -5.928 -1.0889559338018264e-15 -5.928 S1.7832263234641403 -5.815518593634154 2.963999999999996 -5.133798593634155 S4.45207859363415 -4.144773676535857 5.13379859363415 -2.9640000000000026 S5.928 -1.3634400000000015 5.928 -1.451941245069102e-15" fill="#0077c2" stroke-width="0">
    <animateTransform attributeName="transform" type="rotate" dur="25s" repeatCount="indefinite" values="0;60"></animateTransform>
  </path>
</g><g transform="translate(1643.7654478708328,-160.16382196767807) scale(100)" opacity="0.4">
  <path d="M8.299199999999999 0 C8.299199999999999 1.9088159999999996 8.141726031087812 2.496516852849802 7.187318031087813 4.149599999999999 S5.802683147150197 6.232910031087812 4.1496 7.187318031087812 S1.908816 8.299199999999999 5.081794357741856e-16 8.299199999999999 S-2.496516852849801 8.141726031087812 -4.149599999999998 7.187318031087813 S-6.23291003108781 5.802683147150199 -7.187318031087811 4.149600000000002 S-8.299199999999999 1.9088160000000007 -8.299199999999999 1.0163588715483713e-15 S-8.141726031087813 -2.4965168528498 -7.1873180310878135 -4.149599999999997 S-5.8026831471502 -6.23291003108781 -4.149600000000003 -7.187318031087811 S-1.9088160000000012 -8.299199999999999 -1.5245383073225568e-15 -8.299199999999999 S2.4965168528497967 -8.141726031087813 4.149599999999994 -7.187318031087815 S6.232910031087809 -5.8026831471502 7.18731803108781 -4.149600000000003 S8.299199999999999 -1.9088160000000016 8.299199999999999 -2.0327177430967425e-15" fill="#006fc4" stroke-width="0">
    <animateTransform attributeName="transform" type="rotate" dur="16.666666666666668s" repeatCount="indefinite" values="0;60"></animateTransform>
  </path>
</g><g transform="translate(2037.2247165933327,-465.36211514828494) scale(100)" opacity="0.4">
  <path d="M13.278719999999998 0 C13.278719999999998 3.0541055999999993 13.0267616497405 3.9944269645596835 11.4997088497405 6.639359999999998 S9.284293035440315 9.972656049740499 6.639360000000001 11.499708849740498 S3.0541056 13.278719999999998 8.13087097238697e-16 13.278719999999998 S-3.9944269645596817 13.0267616497405 -6.639359999999996 11.4997088497405 S-9.972656049740497 9.284293035440317 -11.499708849740497 6.6393600000000035 S-13.278719999999998 3.054105600000001 -13.278719999999998 1.626174194477394e-15 S-13.0267616497405 -3.9944269645596804 -11.499708849740502 -6.6393599999999955 S-9.284293035440319 -9.972656049740495 -6.639360000000005 -11.499708849740497 S-3.0541056000000015 -13.278719999999998 -2.4392612917160907e-15 -13.278719999999998 S3.994426964559674 -13.026761649740504 6.63935999999999 -11.499708849740506 S9.972656049740495 -9.284293035440319 11.499708849740497 -6.639360000000005 S13.278719999999998 -3.0541056000000024 13.278719999999998 -3.252348388954788e-15" fill="#0066c5" stroke-width="0">
    <animateTransform attributeName="transform" type="rotate" dur="12.5s" repeatCount="indefinite" values="0;60"></animateTransform>
  </path>
</g><g transform="translate(2876.604489867999,-1116.451807266913) scale(100)" opacity="0.4">
  <path d="M23.901695999999998 0 C23.901695999999998 5.497390079999999 23.4481709695329 7.18996853620743 20.699475929532902 11.950847999999997 S16.711727463792567 17.950780889532897 11.950848 20.6994759295329 S5.497390080000001 23.901695999999998 1.4635567750296547e-15 23.901695999999998 S-7.189968536207426 23.4481709695329 -11.950847999999993 20.699475929532902 S-17.950780889532894 16.71172746379257 -20.699475929532895 11.950848000000006 S-23.901695999999998 5.4973900800000015 -23.901695999999998 2.9271135500593094e-15 S-23.448170969532903 -7.189968536207425 -20.699475929532905 -11.950847999999992 S-16.711727463792574 -17.950780889532894 -11.95084800000001 -20.699475929532895 S-5.497390080000003 -23.901695999999998 -4.390670325088964e-15 -23.901695999999998 S7.189968536207414 -23.448170969532903 11.950847999999983 -20.69947592953291 S17.950780889532894 -16.711727463792574 20.699475929532895 -11.95084800000001 S23.901695999999998 -5.497390080000005 23.901695999999998 -5.854227100118619e-15" fill="#005cc4" stroke-width="0">
    <animateTransform attributeName="transform" type="rotate" dur="10s" repeatCount="indefinite" values="0;60"></animateTransform>
  </path>
</g></g>
</svg>